<svg xmlns="http://www.w3.org/2000/svg" xmlns:xlink="http://www.w3.org/1999/xlink" width="180" height="180" viewBox="0 0 180 180">
  <defs>
    <clipPath id="clip-path">
      <rect id="Plan-de-travail11" width="180" height="180" transform="translate(-0.304)"/>
    </clipPath>
  </defs>
  <g id="ambition" transform="translate(0.304)" opacity="0.997">
    <rect id="Plan-de-travail1" width="180" height="180" transform="translate(-0.304)" fill="none"/>
    <g id="Groupe_15" data-name="Groupe 15" transform="translate(0)" clip-path="url(#clip-path)">
      <g id="Calque-1" transform="translate(-0.264 0)">
        <path id="Tracé_9" data-name="Tracé 9" d="M6.779,117.215l1.583,1.43,12.905-7.117c-2.581-3.221-4.513-5.628-7.143-8.912-2.925,5.814-5.134,10.207-7.344,14.6m69.544,49.353c-2.738-2.943-4.933-5.3-7.912-8.5l-6.963,14.084q.626.615,1.25,1.232l13.625-6.813m71.5-124.708A10.127,10.127,0,0,0,137.6,31.626a10.385,10.385,0,0,0-10.189,10.358c.094,5.4,5.164,10.523,10.333,10.451A10.525,10.525,0,0,0,147.823,41.86m-46.97,81.833c4.917-1.845,9.184-3.446,14.726-5.528-3.814,22.945-23.094,34.062-33.036,49.37L56.35,180.01q-.693-.73-1.389-1.457c2.013-4.316,3.238-9.316,6.223-12.788,4.362-5.076,3.71-12.211,9.746-17.126,5.385-4.382-3.433-18.369-10.993-18.278-3.143.04-6.285.4-10.57.687.179-3.794.319-7.286.512-10.775.283-5.016-1.559-9.316-6.627-9.861-4.9-.527-10.765-6.738-15.152,2-1.149,2.288-6.062,2.541-9.1,4.025-5.822,2.838-11.538,5.892-17.3,8.853L0,123.717c2.63-5.268,5.387-10.479,7.837-15.831,1.224-2.674,1.859-5.616,2.828-8.412a5.42,5.42,0,0,1,1.246-2.328c8.257-7.09,16.222-14.594,24.979-21,7.068-5.171,15.111-9,22.722-13.424q.858.992,1.721,1.987c-1.618,4.487-3.233,8.97-5.787,16.058,8.97-3.55,17.558-4.917,23.385-9.686a274.289,274.289,0,0,0,31.853-31.286c18-20.468,41.248-31.5,66.319-39.724.6-.2,1.361.087,2.907.222-6.963,19.678-13.107,39.367-27.363,54.77-13.268,14.335-27.458,27.8-41.012,41.88-6.9,7.165-9.553,14.35-10.781,26.753" transform="translate(0 0)" fill="#407072"/>
      </g>
    </g>
  </g>
</svg>
