<svg xmlns="http://www.w3.org/2000/svg" xmlns:xlink="http://www.w3.org/1999/xlink" width="180" height="180" viewBox="0 0 180 180">
  <defs>
    <clipPath id="clip-path">
      <rect id="Plan-de-travail11" width="180" height="180" transform="translate(0.045)"/>
    </clipPath>
  </defs>
  <g id="Groupe_16" data-name="Groupe 16" transform="translate(-0.045)" clip-path="url(#clip-path)">
    <g id="Calque-1" transform="translate(0 1.29)">
      <path id="Tracé_10" data-name="Tracé 10" d="M174.219,163.544c-.409.852-.586,2.045-1.261,2.5-16.575,11.275-32.675,23.566-52.6,28.515-13,3.229-26.148,3.441-39.042-1.033-16.849-5.844-24.447-19.147-21.474-36.762,2.6-15.409,10.443-27.986,21.073-38.827,16.506-16.838,35.04-31.2,56.943-40.277a59.939,59.939,0,0,1,22.926-4.021c14.35.118,18,13.273,16.406,23.759-1.681,11.062-8.988,18.7-17.117,25.176C144,135.4,125.779,143.869,105.244,146.845c-1.216.176-2.587.527-3.653.148a20.679,20.679,0,0,1-4.029-2.537c1.13-.795,2.155-1.985,3.409-2.324,23.953-6.481,44-19.332,60.466-37.671,2.716-3.026,4.2-7.746,4.855-11.9,1.005-6.4-2.044-9.288-8.216-7.6a67.583,67.583,0,0,0-17.876,7.4c-23.578,14.7-42.851,33.723-55.1,58.987a52.145,52.145,0,0,0-4.822,18.115c-.849,10.346,4.948,17.237,15.153,19.733,9.586,2.345,18.853.312,28.072-2.275,14.774-4.146,27.616-12.182,40.6-19.958,2.917-1.749,6.012-3.2,9.026-4.791q.541.689,1.086,1.377" transform="translate(-14.866 -19.778)" fill="#407072" stroke="#407072" stroke-linejoin="round" stroke-miterlimit="2" stroke-width="0.24"/>
      <path id="Tracé_11" data-name="Tracé 11" d="M180.927,7.41c-12.8,10.252-24.416,19.561-36.079,28.905-5.5-8.967-7.8-9.9-19.4-7.91A136.6,136.6,0,0,0,74.3,48.6,171.757,171.757,0,0,0,55.484,62.963c-9.29,7.983-9.538,9.488-6.066,21.086L6.014,94.061c-.383-.473-.764-.947-1.148-1.421,3.089-2.7,6.363-5.225,9.236-8.141,18.641-18.924,37.461-37.684,55.61-57.072,5.4-5.765,11.783-6.254,18.4-7.188,30.417-4.293,60.856-8.427,92.818-12.829" transform="translate(-1.222 -3.15)" fill="#407072" stroke="#407072" stroke-linejoin="round" stroke-miterlimit="2" stroke-width="0.24"/>
      <path id="Tracé_12" data-name="Tracé 12" d="M163.477,58.919c-20.447-.934-36.254,8.541-51.224,19.13-11.719,8.29-22.329,18.15-33.435,27.306-.644.53-1.324,1.018-2.429,1.864-3.783-7.575-7.626-14.656-10.771-22.034-.7-1.654.438-4.823,1.751-6.49,8.2-10.413,19.17-17.507,30.486-23.956A130.727,130.727,0,0,1,143.379,38.8c9.017-1.359,10.008-.9,13.783,7.088,1.937,4.1,3.951,8.16,6.315,13.035" transform="translate(-16.42 -10.882)" fill="#407072" stroke="#407072" stroke-linejoin="round" stroke-miterlimit="2" stroke-width="0.24"/>
      <path id="Tracé_13" data-name="Tracé 13" d="M0,90.508a35.718,35.718,0,0,1,3.256-4.594c18.867-19.457,38.15-38.526,56.52-58.44C67.6,19,76,14.6,87.531,13.3c27.915-3.148,55.679-7.6,83.519-11.426a17.286,17.286,0,0,1,8.7,1.117,28.48,28.48,0,0,1-4.005,1.163q-35.49,5-70.991,9.918c-6.085.851-12.158,2.46-18.243,2.5-10.236.061-17.047,5.159-23.756,12.243C43.633,48.989,23.947,68.631,4.47,88.465c-1.042,1.06-2.233,1.975-3.355,2.957L0,90.508Z" transform="translate(0 -1.722)" fill="#407072" stroke="#407072" stroke-linejoin="round" stroke-miterlimit="2" stroke-width="0.24"/>
    </g>
  </g>
</svg>
