<svg xmlns="http://www.w3.org/2000/svg" xmlns:xlink="http://www.w3.org/1999/xlink" width="180" height="180" viewBox="0 0 180 180">
  <defs>
    <clipPath id="clip-path">
      <rect id="Plan-de-travail11" width="180" height="180"/>
    </clipPath>
  </defs>
  <g id="Groupe_13" data-name="Groupe 13" clip-path="url(#clip-path)">
    <g id="Mode-Isolation" transform="translate(14.006 0)">
      <path id="Tracé_1" data-name="Tracé 1" d="M165.964,48.67c0-5.562-.24-11.139.092-16.682.19-3.189-.753-4.635-3.893-4.8-1.159-.06-2.3-.466-3.455-.6C137.368,24.086,117.4,17.3,98.3,7.623a8.24,8.24,0,0,0-6.019.1c-9.912,3.947-19.45,9.03-29.606,12.115-11.142,3.383-22.808,5.046-34.26,7.387-2.1.429-4.052.571-3.826,3.564,1.316,17.348,1.1,34.96,4.117,52,6.721,37.9,26.847,67.463,59.493,88.341,4.961,3.173,8.961,3.264,13.953.129a130.272,130.272,0,0,0,51.166-59.2c8.861-20.179,11.972-41.516,12.651-63.382m4.561-26.108c0,11.942.379,23.2-.085,34.428a156.526,156.526,0,0,1-11.649,54.172c-11.85,28.434-30.823,50.753-57.221,66.787-4.756,2.888-8.589,2.683-13.271-.258-35.137-22.087-56.808-53.605-64.683-94.1-2.938-15.11-3.1-30.762-4.433-46.176-.316-3.638-.087-7.326-.463-10.954-.342-3.313,1.253-4.151,4.132-4.671,10.78-1.941,21.814-3.179,32.193-6.453C67.685,11.353,79.732,5.5,92.114.665c1.769-.692,4.39-.988,5.944-.177A200.39,200.39,0,0,0,166.42,21.714c1.575.2,3.119.64,4.1.848" transform="translate(-18.674 0)" fill="#407072"/>
      <path id="Tracé_2" data-name="Tracé 2" d="M162.182,53.4c0-1.9-.02-3.806.005-5.707.031-2.344.107-4.686.148-7.028.121-6.777.138-6.948-6.483-7.755a158.026,158.026,0,0,1-55.292-17.673,6.109,6.109,0,0,0-6.477-.138C89.174,17.69,84.066,19.914,79,22.209,65.117,28.5,50.307,31.273,35.368,33.462c-2.6.38-4.022,1.089-3.771,4.025,1.439,16.9,1.367,34.069,4.478,50.648,6.454,34.409,24.937,61.379,54.6,80.5,4.586,2.955,8.233,2.923,12.749.052a121.8,121.8,0,0,0,44.956-50.494c9.937-20.427,13.353-42.3,13.8-64.793m5.746-2.364c-.68,21.865-3.79,43.2-12.651,63.382a130.274,130.274,0,0,1-51.166,59.2c-4.992,3.134-8.992,3.044-13.953-.13C57.513,152.613,37.387,123.048,30.667,85.15c-3.023-17.039-2.8-34.653-4.118-52-.227-2.994,1.728-3.135,3.827-3.564,11.451-2.342,23.118-4,34.259-7.388C74.79,19.114,84.328,14.031,94.24,10.083a8.25,8.25,0,0,1,6.02-.1c19.1,9.68,39.073,16.463,60.411,18.964,1.16.137,2.3.542,3.455.6,3.141.164,4.085,1.609,3.893,4.8-.332,5.543-.092,11.119-.092,16.682" transform="translate(-20.638 -2.365)" fill="#fff"/>
      <path id="Tracé_3" data-name="Tracé 3" d="M55.537,89.8c-6.391,2.122-12.553-5.851-12.9-12.481-.547-10.41,4.279-18.034,12.325-23.857,17.461-12.635,36.616-11.7,56.511-6.945-11.189,11.1-11.878,15.59-3.7,23.81-2.705.535-5.286,1-7.848,1.555-11.531,2.476-22.1,6.775-30.137,15.895-11.554,13.118-7.6,28.57,8.844,34.5,1.1.4,2.279.6,3.334,1.078a10.007,10.007,0,0,1,3.288,1.964c8.847,9.658,19.729,9.607,31.223,6.653.607-.156,1.07-.872,2.054-1.718-19.165,2.8-25.761,1.584-30.408-5.471,1.823,0,3.557.019,5.289,0A52.216,52.216,0,0,0,127.982,111.7c5.217-4.519,9.111-9.866,10.211-16.926,1.272-8.162-3.257-14.711-11.47-15.7-13.937-1.684-25.568,3.509-35.532,12.871-8.478,7.965-12.631,17.423-8.845,29.31-7.971-2.162-11.457-6.55-11.661-14.169a23.969,23.969,0,0,1,5.174-15.96c7.995-10.135,19.158-15.138,31.1-18.666,2.393-.707,5.134-.269,7.715-.3,3.26-.036,6.52-.008,9.781-.008V70.033c-3.637-.107-7.3,0-10.9-.414-1.613-.185-3.976-1.019-4.5-2.216-2.088-4.749-.653-9.316,2.569-13.04,2.867-3.313,5.594-7.332,11.33-5.178a51.14,51.14,0,0,0,10.669,2.487,164.828,164.828,0,0,0,18.249,1.885c1.583.051,4.076-2.028,4.592-3.631.378-1.178-1.5-3.512-2.9-4.71a13.871,13.871,0,0,0-5.178-2.261,44.312,44.312,0,0,0-26.41.131c-5.88,1.937-11.217,1.515-17.022.257-12.961-2.807-26.077-4.4-39.1-.367-12.473,3.86-21.922,11.287-25.4,24.386-2.114,7.958-.643,15.5,5.76,21.334,4.319,3.935,11.222,4.354,14.332.69a7.659,7.659,0,0,0,1.386-5.853c-.236-1.083-3.073-2.487-4.427-2.211-1.655.339-3.811,2.075-4.2,3.6-.347,1.355,1.423,3.253,2.241,4.876M163.86,54.991c-.45,22.5-3.866,44.366-13.8,64.793A121.79,121.79,0,0,1,105.1,170.277c-4.517,2.871-8.165,2.9-12.75-.052-29.661-19.121-48.143-46.091-54.6-80.5-3.109-16.578-3.038-33.751-4.478-50.648-.249-2.935,1.168-3.645,3.773-4.025C51.985,32.864,66.8,30.091,80.679,23.8c5.064-2.294,10.172-4.519,15.083-7.11a6.11,6.11,0,0,1,6.477.138A158.031,158.031,0,0,0,157.532,34.5c6.621.808,6.6.978,6.483,7.755-.043,2.342-.119,4.684-.15,7.028-.024,1.9-.005,3.8-.005,5.707" transform="translate(-22.317 -3.956)" fill="#407072"/>
      <path id="Tracé_4" data-name="Tracé 4" d="M124.292,54.77q-.1.892-.2,1.781c9.325,1.3,18.634,2.737,27.988,3.783,1.484.165,3.162-1.4,4.751-2.172-1.237-1.4-2.2-3.488-3.755-4.1-9.67-3.814-19.318-3.364-28.78.706M95.309,131.554A79.4,79.4,0,0,0,104.4,130.2c13.3-3.523,24.844-10,32.026-22.116,6.227-10.5.754-19.215-11.348-19.017-14.486.236-32.868,13.315-37.77,26.947a22.469,22.469,0,0,0-1.184,5.112c-.907,8.346.8,10.2,9.188,10.431M57.636,98.037c-.817-1.623-2.588-3.521-2.24-4.876.392-1.526,2.547-3.262,4.2-3.6,1.354-.276,4.191,1.128,4.427,2.211a7.66,7.66,0,0,1-1.386,5.853c-3.11,3.664-10.013,3.245-14.333-.69C41.9,91.1,40.433,83.559,42.547,75.6c3.481-13.1,12.93-20.526,25.4-24.386,13.023-4.031,26.139-2.441,39.1.368,5.806,1.258,11.142,1.679,17.022-.257a44.315,44.315,0,0,1,26.411-.131,13.872,13.872,0,0,1,5.177,2.261c1.4,1.2,3.275,3.532,2.9,4.709-.516,1.6-3.008,3.683-4.591,3.632a164.8,164.8,0,0,1-18.249-1.885,51.246,51.246,0,0,1-10.669-2.486c-5.737-2.156-8.463,1.864-11.33,5.177-3.221,3.724-4.657,8.292-2.569,13.039.526,1.2,2.89,2.032,4.5,2.216,3.6.412,7.263.308,10.9.415v2.117c-3.261,0-6.522-.027-9.781.009-2.581.029-5.321-.41-7.714.3-11.941,3.527-23.1,8.53-31.1,18.666a23.961,23.961,0,0,0-5.175,15.96c.2,7.618,3.69,12.007,11.662,14.168-3.788-11.887.367-21.345,8.845-29.309,9.964-9.361,21.6-14.555,35.532-12.871,8.214.992,12.742,7.541,11.47,15.7-1.1,7.06-4.993,12.407-10.21,16.926A52.216,52.216,0,0,1,95.51,133.022c-1.733.022-3.467,0-5.29,0,4.648,7.055,11.244,8.268,30.408,5.472-.985.846-1.448,1.562-2.054,1.718-11.494,2.954-22.376,3-31.223-6.652a10.018,10.018,0,0,0-3.288-1.965c-1.055-.481-2.235-.68-3.335-1.076-16.445-5.934-20.4-21.386-8.843-34.5C79.919,86.9,90.492,82.6,102.022,80.12c2.563-.551,5.142-1.02,7.849-1.554-8.181-8.221-7.492-12.711,3.7-23.811C93.674,50,74.519,49.065,57.058,61.7c-8.046,5.823-12.871,13.447-12.325,23.857.349,6.63,6.513,14.6,12.9,12.481" transform="translate(-24.416 -12.193)" fill="#fff"/>
      <path id="Tracé_5" data-name="Tracé 5" d="M110.058,144.977c-8.391-.236-10.095-2.085-9.187-10.431a22.449,22.449,0,0,1,1.184-5.114c4.9-13.631,23.284-26.711,37.77-26.946,12.1-.2,17.574,8.514,11.349,19.017-7.184,12.115-18.724,18.593-32.027,22.116a79.785,79.785,0,0,1-9.088,1.357" transform="translate(-39.165 -25.616)" fill="#3f6e70"/>
      <path id="Tracé_6" data-name="Tracé 6" d="M151.767,55.657c9.462-4.07,19.11-4.52,28.78-.706,1.55.611,2.518,2.695,3.755,4.1-1.589.768-3.267,2.337-4.751,2.172-9.354-1.046-18.663-2.479-27.988-3.783q.1-.89.2-1.781" transform="translate(-51.891 -13.081)" fill="#407072"/>
    </g>
  </g>
</svg>
