<svg xmlns="http://www.w3.org/2000/svg" xmlns:xlink="http://www.w3.org/1999/xlink" width="179" height="180" viewBox="0 0 179 180">
  <defs>
    <clipPath id="clip-path">
      <rect id="Plan-de-travail11" width="179" height="180" transform="translate(0.348)"/>
    </clipPath>
  </defs>
  <g id="innovation" transform="translate(-0.348)">
    <rect id="Plan-de-travail1" width="179" height="180" transform="translate(0.348)" fill="none"/>
    <g id="Groupe_14" data-name="Groupe 14" transform="translate(0)" clip-path="url(#clip-path)">
      <g id="Calque-1" transform="translate(9.409 0)">
        <path id="Tracé_7" data-name="Tracé 7" d="M117.205,130.438c.974-6.463,1.788-11.859,2.737-18.141L99.588,124.2c6.337,2.246,11.533,4.085,17.618,6.24m-.23-81.347-18.07,6.942,21.111,11.638c-1.082-6.612-2-12.211-3.041-18.58m-53.56,20.73L90.188,54.374,67.265,46.359c-1.339,8.16-2.505,15.268-3.851,23.462m27.455,56.125L63.427,110.793c1.42,8.348,2.684,15.776,4.076,23.962l23.365-8.809m54.607-36.341L125.847,74.142v31.6l19.629-16.133m-22.911,41.829c10.315,3.453,22.518,4.373,30.695,2.429,9.541-2.267,13.662-9.164,10.576-18.4-3.182-9.516-9.592-16.829-16.565-23.546-7.08,5.393-13.815,10.483-20.484,15.657a4.3,4.3,0,0,0-1.6,2.479c-.95,7.041-1.751,14.1-2.624,21.378M67.654,43.24c8.694,3.511,16.333,6.642,24.025,9.637a4.425,4.425,0,0,0,2.96-.292c6.818-2.835,13.6-5.766,21.569-9.173-3.182-7.188-6.107-14.564-9.717-21.589a26.635,26.635,0,0,0-6.947-7.944c-5.034-4.111-10.433-4.137-15.408.09a31.773,31.773,0,0,0-7.613,9.108c-3.334,6.383-5.858,13.188-8.869,20.164M121.208,88.3c-.215-3.891-.392-9.528-.935-15.128a5.617,5.617,0,0,0-2.316-3.789c-6.378-3.754-12.849-7.373-19.462-10.691a6.547,6.547,0,0,0-5.269.212q-14,7.721-27.672,16.018A6.424,6.424,0,0,0,63.1,79.537c-.266,7.106-.325,14.237.02,21.336a7.431,7.431,0,0,0,3.041,5.184c7.706,4.706,15.778,8.811,23.477,13.526,5.2,3.185,9.529,2.612,14.6-.545,19.811-12.334,15.657-4.816,16.974-30.734M64.641,135.18c-1.1-8.463-2-16.265-3.245-24.008-.234-1.457-1.637-2.994-2.9-3.971-5.121-3.952-10.4-7.7-15.7-11.578,1.451-1.754,2.465-2.98,3.374-4.08,4.949,3.749,9.364,7.095,14.155,10.726v-23.7c-10.092,7.359-19.071,14.88-26.191,24.265a66.819,66.819,0,0,0-9,15.225c-4.061,10.172.452,17.443,11.284,19.564,9.6,1.878,18.824-.128,28.223-2.438m.42-92.606c2.373-6.991,4.027-14.021,7.118-20.351,3.072-6.291,6.855-12.58,11.658-17.594,6.08-6.348,13.786-6.174,19.544.566,5,5.852,8.478,13.066,12.221,19.9,1.742,3.183,2.519,6.9,3.772,10.477,7.327-6.525,13.457-7.479,19.285-3.171a12.938,12.938,0,0,1,3.95,15.571c-3.019,6.812-8.429,8.592-19.28,6.12.6,5.246,1.089,10.379,1.866,15.469a5.587,5.587,0,0,0,2.154,3.065c3.17,2.444,6.532,4.638,9.741,7.033s6.315,4.92,9.98,7.791c7.494-8.011,14.972-16.006,16.867-27.382,1.179-7.077-2.538-12.208-9.7-14.372-2.246-.679-4.6-1.007-7.017-1.521-.333-2.079-.658-4.106-1.085-6.78,7.906-.593,15.463-.408,21.964,4.613,4.653,3.593,5.312,8.7,4.136,14.124-1.819,8.38-6.6,15.185-11.961,21.594-3.407,4.072-7.108,7.9-10.479,11.611,5.124,5.844,10.576,11.188,14.93,17.313a61.041,61.041,0,0,1,8.119,16.137c2.517,7.683-1.006,14.791-8.9,16.744-7.042,1.742-14.614,1.787-21.948,1.761-4.947-.018-9.89-1.46-13.814-2.1-.39,4.51-.038,9.115-1.412,13.128-.86,2.512-4.019,4.786-6.679,6.018-5.724,2.651-12.587-.092-15.715-5.595-3.612-6.353-1.635-12.843,6.2-18.811-5.683-2.348-11.02-4.592-16.4-6.719-.572-.226-1.412.219-2.125.366a2.445,2.445,0,0,0-.406.18l-23.112,9.66c3.149,10.713,6.443,21.442,15.627,28.976,5.267,4.317,11.336,3.843,16.572-.855,1.966-1.766,3.639-3.856,5.523-5.88l6.354,2.7c-3.512,6.7-7.2,12.922-14.306,16.326-4.856,2.327-9.735,1.515-13.192-2.008a60.326,60.326,0,0,1-11.1-14.738c-3.683-7.361-5.978-15.415-9.017-23.573-4.248.972-8.777,2.591-13.4,2.94-8.364.63-16.922,1.532-25.148.434-10.654-1.421-14.736-9.337-11.635-19.726,2.611-8.75,8.067-15.782,13.963-22.522.959-1.1,1.88-2.226,2.861-3.391-9.513-4.621-12.615-9.346-11.058-16.562A12.778,12.778,0,0,1,31.935,69.78c7.3-.517,11.629,3.084,14.7,12.537,4.6-3.359,9.128-6.6,13.569-9.962a3.641,3.641,0,0,0,1.19-2.243c1.049-7.922,2.006-15.856,3.038-24.17C54.581,43.453,44.709,41.654,34.614,44c-9.829,2.281-13.575,9.19-10.5,18.794.538,1.678,1.28,3.292,2,5.118-1.744,1.378-3.458,2.732-5.412,4.278a36.816,36.816,0,0,1-7.89-18.063c-.855-6.389,4.333-12.472,12.121-14.392,11.91-2.935,23.593-.706,35.223,1.954,1.3.3,2.584.674,3.883.976a3.831,3.831,0,0,0,1.022-.087" transform="translate(-12.72 0)" fill="#407072"/>
        <path id="Tracé_8" data-name="Tracé 8" d="M134.463,113.089a21.39,21.39,0,0,1-21.514,21.462,21.61,21.61,0,1,1-.2-43.218,21.483,21.483,0,0,1,21.714,21.756" transform="translate(-32.311 -22.829)" fill="#407072"/>
      </g>
    </g>
  </g>
</svg>
