<svg xmlns="http://www.w3.org/2000/svg" width="825.449" height="199.97" viewBox="0 0 825.449 199.97">
  <g id="Groupe_27" data-name="Groupe 27" transform="translate(-618.073 -2107)">
    <g id="Groupe_26" data-name="Groupe 26" transform="translate(618.073 2107)">
      <path id="Tracé_25" data-name="Tracé 25" d="M91.063,151.5l.567-.149c.924-3.882,1.877-7.759,2.752-11.654.2-.87.793-2.067-.448-2.555a6.877,6.877,0,0,0-4.293-.019c-1.2.321-1.277,1.359-1.073,2.364.81,4.009,1.66,8.009,2.495,12.012M146.676.941c-.574-6.445-5.324-11.1-13.208-13.251L146.676.941M50.551-13.15C39.988-9.132,36.215-5.377,35.6,1.825L50.551-13.15M121.469,91.729c-3.079,10.684-.213,17.433,8.989,21.577-2.985-7.165-5.852-14.047-8.989-21.577m57.02-57.8.5-.359c-2.48-6.153-4.96-12.306-7.66-19.008-1.668,2.209-2.84,3.739-3.987,5.289-.711.959-1.024,2.007-.07,2.961,3.721,3.724,7.475,7.414,11.216,11.117M10.952,15.053,3.3,34.239c4.209-3.444,7.937-7.21,11.72-10.92,1.157-1.135,1.415-2.152.217-3.4-1.4-1.461-2.181-3.472-4.282-4.866m40.621,99.314.617.658c2.222-2.37,4.394-4.791,6.677-7.1,4.585-4.639,5.218-9.012,1.9-15.446l-9.2,21.889m80.07-152.484c-.756,1.606-1.158,2.335-1.453,3.1q-2.079,5.439-4.1,10.9c-.672,1.813-.207,2.646,1.826,1.956,2.643-.9,5.273-1.826,7.919-2.713,1.525-.513,1.769-1.429,1.066-2.8-1.645-3.215-3.249-6.451-5.253-10.441m-6.43,120.561.56.431,19.311-13.54c-3.472-.7-5.958-1.137-8.406-1.731-1.623-.394-2.5.358-3.265,1.6q-4.082,6.633-8.2,13.242M51.163-38.074c-7.813,11.512-7.5,12.817,3.139,15.79.234.065.46.158.689.239,1.6.561,2.112-.069,1.566-1.563-1.7-4.646-3.452-9.272-5.394-14.466m5.9,121.115.395-.373q-4.394-7.059-8.78-14.124a2.036,2.036,0,0,0-2.439-1.053c-2.65.6-5.315,1.144-8.8,1.886L57.06,83.041M146.432,49.9l-.749-.241Q141.207,56.824,136.742,64c-.419.678-.534,1.512.461,1.74,2.476.564,4.97,1.08,7.48,1.456,1.2.178,1.734-.735,1.739-1.836.023-5.153.011-10.306.011-15.459M36.525,49.156l-.671.076c0,3.531-.045,7.062.009,10.592.132,8.574-1.526,8.076,8.046,6.259,2.449-.464,2.359-1.358,1.239-3.112-2.924-4.574-5.755-9.207-8.623-13.816m2.1-57.693,18-10.57c-4.221-1.412-7.639-2.52-11.029-3.7-1.78-.621-2.371.352-2.835,1.79-1.224,3.8-2.506,7.571-4.139,12.483m104.033-.809c-.725-4.9-.972-10.2-4.093-13.107-2.167-2.014-6.338,1.564-9.7,2.307a5.206,5.206,0,0,0-1.028.356c-1.19.543-1.059,1.237-.081,1.81,4.956,2.9,9.935,5.76,14.906,8.635M122.373,82.839c6.026-9.647,11.817-18.914,17.607-28.18-4.466,3.662-8.124,8.1-12.524,11.6-5.478,4.367-6.621,9.619-5.083,16.575M43.34,54.352l-.6.638q8.811,14.06,17.622,28.122A28.792,28.792,0,0,0,60.939,76c-.021-1.792.217-3.582-1.3-5.091-5.479-5.472-10.876-11.028-16.3-16.552M76.79-22.336c.168.47-.566,1.656.515,2.248.884.485,1.583-.366,2.263-.8,2.658-1.7,5.275-3.458,7.92-5.173,1.282-.831,2.131-1.688.68-3.121-2.5-2.472-4.96-4.99-7.47-7.455-1.351-1.326-2.288-1.315-2.5.87-.429,4.341-.9,8.676-1.405,13.429m29.344,3.618c-.778-7.015-1.454-13.1-2.245-20.229-3.761,3.818-6.88,6.976-9.987,10.145-.984,1-.456,1.683.5,2.314,3.64,2.393,7.266,4.81,11.729,7.77M90.212-5.765c0-6.482.008-12.128,0-17.775,0-1.525-.761-1.593-1.847-.871q-4.69,3.116-9.373,6.242c-1.321.884-1.415,1.844-.154,2.894,3.583,2.983,7.155,5.978,11.379,9.51M76.4-36.421l-.929-.415q-6.464,7.515-12.909,15.044a1.548,1.548,0,0,0-.318,1.289c.431,1.054,11.108,2.363,11.834,1.49a2.005,2.005,0,0,0,.454-.981c.638-5.474,1.249-10.951,1.867-16.427m45.052,16.174L106.536-37.314a166.636,166.636,0,0,0,1.485,17.276c.171,1.413.94,1.8,2.275,1.573,3.449-.585,6.91-1.109,11.157-1.783M92.082-5.89a130.089,130.089,0,0,0,12.121-9.8c1.1-.94.722-1.572-.281-2.234q-4.841-3.2-9.65-6.445c-1.418-.956-2.2-.82-2.2,1.1.018,5.545.007,11.09.007,17.385m23.735,140.535c-4.679-5.06-8.626-9.308-12.546-13.579-1.4-1.526-2.232-1.136-2.682.712-.833,3.422-1.646,6.848-2.468,10.271-.415,1.73.347,2.578,2.045,2.587,4.845.026,9.691.009,15.651.009m-48.31-1.228q.32.632.64,1.264h6.1c12.443,0,12.443,0,8.958-12.038-.135-.467-.26-.938-.433-1.392-.491-1.281-1.27-1.353-2.2-.455q-6.54,6.3-13.065,12.62M169.631,13.447c-.011-1.514-1.012-2.12-1.824-2.809-3.055-2.587-6.167-5.109-9.21-7.71-1.233-1.055-2.613-1.946-3.6-.12s-4.594,3.118-1.791,6.022c3.2,3.32,6.511,6.538,9.791,9.783.5.5,1.227,1.338,1.834.857a20.384,20.384,0,0,0,4.8-6.023m-23.163-2-.452-.426c-4.35,2.6-8.758,5.115-13.028,7.842-2.505,1.6-6.858,2.316-7.032,5.023-.167,2.588,3.934,4.205,5.929,6.472.241.273.519.512.784.762.744.7,1.448.881,2.069-.151q5.863-9.761,11.73-19.521M93.081,153.492l.692.441,20.016-16.091c-.168-.309-.334-.619-.5-.928H99.509a2.874,2.874,0,0,0-3.088,2.489c-1.1,4.7-2.225,9.395-3.341,14.09M18.038,19.729a5.726,5.726,0,0,0,1.117-.636c3.629-3.6,7.568-6.946,10.734-10.913,1.858-2.327-1.5-3.844-2.561-5.67-.911-1.569-2.023-.646-3.006.179Q19.293,6.91,14.236,11.1c-.962.8-2.1,1.546-1.015,2.956,1.518,1.969,2.58,4.362,4.817,5.674m50.89,117.233-.3.922,20.081,15.954a94.83,94.83,0,0,0-2.24-14.961,2.217,2.217,0,0,0-2.336-1.9c-5.069-.038-10.139-.016-15.208-.016M36.759,11.034l-.558.577c3.042,5.046,6.067,10.1,9.13,15.134,3.881,6.377,3.093,5.865,8.315,1.263,4.933-4.347,4.937-4.375-.677-7.641-5.389-3.136-10.806-6.224-16.211-9.334m66.819,105.131,27.869,2.289c-4.379-4.383-8.15-8.155-11.917-11.932-.832-.835-1.674-1.436-2.841-.527-4.085,3.182-8.182,6.347-13.112,10.17M35.971,41.841A6.964,6.964,0,0,0,39.5,39.812c7.544-6.035,7.556-6.054,2.524-14.454C39.71,21.49,37.3,17.674,34.934,13.835l-.872.332c.629,9.137,1.26,18.273,1.909,27.674m15.736,75.8.506.7,27.733-2.211c-5.258-3.826-9.558-6.944-13.845-10.082a1.961,1.961,0,0,0-2.894.153q-5.733,5.737-11.5,11.439M148.619,13.387l-.769-.252q-5.656,9.473-11.321,18.941a2,2,0,0,0,.525,2.874c2.871,2.353,5.769,4.674,9.449,7.648.749-10.335,1.432-19.772,2.117-29.211m-57.358,121.3c2.359-.058,4.416.367,4.987-2.4.808-3.9,1.771-7.772,2.706-11.646.477-1.975-.339-2.6-2.244-2.552-3.143.086-6.294.126-9.433-.012-2.313-.1-3.071.731-2.557,2.98a94.933,94.933,0,0,1,1.938,9.587c.394,3.222,1.9,4.539,4.6,4.038m60.9-124.306-1.085.593q-1.054,14.547-2.108,29.094c4.937-5.395,9.2-11.056,13.46-16.712a1.8,1.8,0,0,0-.244-2.6q-5.007-5.193-10.022-10.379M75.644-39.648c-7.612,0-14.045.006-20.476,0-1.542,0-2.38.517-1.754,2.2q2.6,7.006,5.233,14c.538,1.424,1.28,1.586,2.346.372,4.623-5.272,9.285-10.509,14.652-16.57m-43.1,79.578c.5-.629.774-.815.765-.985q-.768-13.387-1.588-26.772c-.1-1.636-.907-1.953-2.065-.819-3.2,3.135-6.34,6.324-9.5,9.492a1.587,1.587,0,0,0-.156,2.282c4.147,5.567,8.306,11.124,12.549,16.8m70.575,78.216c4.883,5.3,9.2,9.987,13.531,14.664.614.663,1.492,1.182,2.239.464,4.2-4.028,8.327-8.131,13.134-12.853l-28.9-2.275M57.628,66.029l.963-.3q-4.941-13.77-9.87-27.543c-.594-1.668-1.563-1.677-2.76-.757-2.3,1.771-4.526,3.653-6.865,5.375-2,1.471-1.823,2.733-.154,4.39,6.276,6.23,12.464,12.549,18.686,18.834m50.006-106.3q-.251.431-.5.862,7.162,8.148,14.328,16.293c1.387,1.573,2.029.482,2.52-.787,1.751-4.523,3.469-9.059,5.208-13.587.726-1.891.039-2.78-1.934-2.78q-9.809,0-19.618,0M51.415,120.367l-.453.991Q56.97,127.176,62.972,133c.9.875,1.692,1.277,2.772.211,4.72-4.654,9.35-9.386,14.085-15.033l-28.414,2.19m72.122-53.46a13.387,13.387,0,0,0,1.226-.838c4.375-4.358,8.8-8.668,13.093-13.106,2.507-2.591,7.172-4.9,6.944-7.87-.265-3.45-5.333-5.029-8.163-7.595-.09-.081-.2-.143-.283-.228-1.212-1.212-1.967-.975-2.538.648-3.326,9.461-6.7,18.908-10.279,28.989m56.81-28.148L166.554,25.105c-1-.994-2.067-1.388-3.071-.065-4.439,5.853-8.849,11.727-13.847,18.359l30.711-4.639M59.227,91.376l-.588-.332q-12.372,9.246-24.745,18.491c-1.591,1.187-1.824,2.177.295,3.049,3.811,1.566,7.618,3.15,11.382,4.827,1.649.735,2.594.588,3.346-1.264,3.369-8.283,6.861-16.518,10.309-24.77M32.8,43.426c-5.111-6.86-9.583-12.853-14.04-18.859-.655-.882-1.349-.981-2.112-.214C12.052,28.971,7.468,33.6,2.329,38.782L32.8,43.426M122.825,90.2c3.883,9.336,7.389,17.613,10.743,25.95.767,1.906,1.8,2,3.381,1.309,3.565-1.554,7.093-3.211,10.726-4.587,2.776-1.05,2.824-2.016.512-3.724-8.2-6.06-16.344-12.2-25.362-18.948m-31.2-47.928-.844.111Q86.746,56.524,82.7,70.662c-.458,1.591-.333,2.566,1.7,2.536q6.726-.1,13.455,0c2.145.029,2.433-.957,1.9-2.755-.825-2.786-1.5-5.616-2.314-8.406-1.917-6.594-3.876-13.174-5.818-19.76m58.268,25.712c6.6.825,12.234,1.481,17.859,2.255,2.351.323,3.525-.584,4.239-2.822,2.317-7.268,4.812-14.478,7.174-21.732.215-.661,1.029-1.474-.131-2.388L149.892,67.984M32.695,68,2.257,42.276c2.966,9.006,5.574,16.942,8.2,24.874.537,1.626,1,3.377,3.319,3.1C19.734,69.545,25.7,68.831,32.695,68m1.248-1.35c0-7.047.007-13.086-.007-19.125a2.079,2.079,0,0,0-1.869-2.3Q18.339,43.106,4.608,41.008c-.093.222-.186.442-.279.664L33.942,66.648M179.253,40.716c-10.023,1.576-18.974,3.052-27.951,4.35-2.361.341-3.017,1.514-2.99,3.659.062,4.98,0,9.96.035,14.939.005.771-.4,1.857.72,2.172.775.217,1.274-.563,1.82-1.027,9.153-7.773,18.3-15.547,28.366-24.093m-58.7,25.8.773.025q5.453-15.331,10.9-30.666a2.173,2.173,0,0,0-.459-2.371c-2.248-2.271-4.219-4.859-7.329-6.8-.213,3.182.16,6.148-3.461,7.484-2.731,1.007-5.152,2.89-8.711,1.368l8.282,30.959M59.487,26.583c-3.44,1.514-5.141,4.184-7.593,5.853-1.838,1.25-2.065,2.571-1.289,4.616,2.667,7.027,5.132,14.131,7.7,21.194,1,2.737,1.545,5.677,3.574,8.707,2.637-9.881,5.092-19.116,7.573-28.343.379-1.409.177-1.831-1.492-2.369C63.5,34.8,58.054,33.9,59.487,26.583M153.2,106.56l.884.139q7.492-16.066,14.979-32.133c.806-1.731.058-2.4-1.69-2.571-4.936-.487-9.912-.793-14.776-1.693-3.233-.6-4.1.1-3.635,3.317.915,6.35,1.561,12.74,2.366,19.107.583,4.617,1.245,9.223,1.872,13.834m-124.681.383.927-.262q.631-5.208,1.259-10.416,1.407-11.752,2.8-23.505c.153-1.3.577-2.914-1.695-2.665-5.546.607-11.08,1.343-16.635,1.85-2.433.221-2.508,1.233-1.626,3.071,2.051,4.272,4.046,8.571,6.055,12.863q4.463,9.529,8.913,19.064m45.161-57.5c-.59,6.326.536,14.263,1.94,22.163.181,1.02-.375,2.873,1.319,2.935a3.177,3.177,0,0,0,3.094-2.618C83.008,61.4,85.989,50.888,89.056,40.4c.583-2-.409-2.626-1.971-3.114-3.362-1.049-6.745-2.044-10.059-3.228-2.4-.857-3.415-.242-3.365,2.344.072,3.766.018,7.534.018,13.042M109.1,47.925c0-4.98-.1-8.507.033-12.026.094-2.511-.818-2.928-3.035-2.114a101.965,101.965,0,0,1-10.04,3.262c-2.6.659-3.225,1.767-2.442,4.35,2.963,9.759,5.749,19.571,8.584,29.369a5.118,5.118,0,0,0,1.471,2.859c.654.517,1.331,1.238,2.243,1.011,1.037-.256.938-1.269,1.046-2.1,1.139-8.656,2.869-17.263,2.141-24.615M30.823,109.677c9.767-7.344,18.67-14.094,27.642-20.75,2.275-1.686.526-2.255-.62-3.06-6.269-4.4-12.618-8.7-18.785-13.237-2.425-1.784-3.353-1.671-3.732,1.463-1.4,11.559-2.915,23.1-4.505,35.584m120.138-.644a3.3,3.3,0,0,0,.389-2.758c-1.372-10.814-2.905-21.61-4.1-32.444-.376-3.426-1.446-2.792-3.45-1.377-6.143,4.337-12.282,8.685-18.542,12.85-2.781,1.849-2.237,3.021.1,4.723,5.978,4.357,11.821,8.9,17.744,13.33,2.582,1.933,5.228,3.783,7.856,5.677m-83.177-5.1c1.17,2.079,3.256,2.6,4.542,3.955,7.108,7.5,16,8.887,25.686,7.8,1.2-.134,2.456.018,3.5-.778q6.081-4.655,12.147-9.332c1.233-.953,1.232-1.722-.408-2.209-6.993-2.073-13.976-4.174-20.973-6.229a3.359,3.359,0,0,0-1.8-.061c-7.525,2.241-15.035,4.53-22.692,6.85M68.8,21.758c-.128-.507-.242-.979-.365-1.448-3-11.491-6.032-22.975-8.99-34.478-.688-2.676-1.609-2.4-3.293-.708q-9.862,9.933-19.891,19.7c-1.621,1.586-1.692,2.57.463,3.776,7.3,4.084,14.528,8.3,21.758,12.51,2.481,1.445,5.244,1.839,7.974,2.358,1.292.246,2.524.13,2.344-1.71m46.048,2.195c.376-.1.609-.175.848-.215,11.974-1.977,20.773-10.2,30.925-15.758,1.657-.906.664-2.045-.233-2.941q-10.2-10.167-20.4-20.324c-1.635-1.636-2.309-1.136-2.792.906-.837,3.545-1.839,7.051-2.769,10.574q-3.35,12.69-6.7,25.379c-.312,1.179-.948,2.52,1.117,2.38M70.545,42.788c-1.716,6.572-3.088,13.258-5.223,19.691-4.109,12.379-2.729,24.672-.348,37.05.326,1.7,1.136,2.517,2.7,1.983,6.841-2.333,14.335-2.92,20.247-7.77,2.773-2.275,3.091-4.6.823-7.388-2.818-3.465-6.774-5.14-10.653-6.785-3.147-1.334-4.2-3.469-4.631-6.639-1.348-9.985-2.947-19.938-2.919-30.142m41.009-1.3A215.247,215.247,0,0,1,109.032,74.2a6.164,6.164,0,0,1-4.345,5.5c-4.162,1.649-8.3,3.442-11.238,7.137-2.105,2.645-1.765,4.579.8,6.712,4.377,3.637,9.691,4.831,14.917,6.375,8.042,2.376,7.863,2.386,9.374-5.834,1.347-7.329,2.565-14.786,1.075-22.036-2.119-10.306-5.322-20.389-8.062-30.567M90.228,15.966q0-8.021,0-16.044c0-1.339.109-2.78-1.09-3.7-7.364-5.67-13.342-13.6-24.042-13.686-4.078-.03-4.39-.294-3.367,3.608,2.863,10.925,6.664,21.7,8.391,32.8,1.558,10.016,6.917,14.359,16.029,15.8a1.943,1.943,0,0,1,.345.116c2.735,1,3.809-.009,3.761-2.848-.09-5.347-.026-10.7-.025-16.044m28.091-33.46c-3.783,1.353-9.034.2-13.054,3.735C101.707-10.629,98.055-7.6,94.39-4.6A5.581,5.581,0,0,0,92.052.057q.1,16.052,0,32.1c-.023,3.063,1.342,3.563,3.888,2.7,3.453-1.169,6.9-2.367,10.389-3.416a4.776,4.776,0,0,0,3.507-3.757c1.077-4.24,2.252-8.455,3.363-12.688,2.592-9.87,5.159-19.748,7.766-29.615.46-1.738.8-3.267-2.643-2.881M90.379,158.069c-4.308-4.681-9.59-8.217-14.535-12.123-8.031-6.343-15.924-12.819-22.814-20.4-3.443-3.787-7.329-6.8-12.251-8.168-8.693-2.423-13.551-7.962-17.3-16.32C15.059,82.295,6.659,63.591.7,43.86a12.135,12.135,0,0,1,.243-8.792c2.842-6.718,5.492-13.52,8.125-20.323a12.147,12.147,0,0,1,3.961-5.107c3.307-2.675,6.511-5.483,9.872-8.087,1.828-1.416,2.081-2.574.536-4.442-2.4-2.9-4.444-6.094-6.81-9.025-1.328-1.646-1.261-2.888.07-4.463,2.59-3.062,5.131-6.177,7.5-9.411a5.406,5.406,0,0,1,5.988-2.322c3.219.625,6.506.917,9.695,1.652,2.114.487,3.149-.253,4.012-2.035,1.7-3.5,3.633-6.889,5.249-10.426a4.444,4.444,0,0,1,4.516-2.934q10.949.053,21.9.01a6.815,6.815,0,0,1,5.155,2.29c2.786,2.887,5.759,5.6,8.475,8.548,1.678,1.823,2.827,1.612,4.409-.1,2.723-2.947,5.712-5.644,8.458-8.57a6.577,6.577,0,0,1,5.155-2.206c7.177.033,14.356.064,21.532-.018a4.519,4.519,0,0,1,4.731,3.108c1.5,3.453,3.383,6.738,4.98,10.153.9,1.918,1.968,2.767,4.257,2.21,3.178-.776,6.463-1.1,9.688-1.7a5.133,5.133,0,0,1,5.694,2.137,109.291,109.291,0,0,0,7.131,8.772c1.874,2.082,2.058,3.809.187,6.019-2.2,2.592-4.023,5.5-6.159,8.145-1.412,1.751-1.589,3.034.391,4.515,2.234,1.671,4.093,3.88,6.419,5.384,5.214,3.372,7.842,8.314,9.839,13.969,2.1,5.953,4.763,11.707,7.18,17.548v2.19c-.648,1.7-1.33,3.385-1.938,5.1-4.264,12-7.48,24.381-13.2,35.867-3.84,7.715-7.615,15.49-10.858,23.466-2.116,5.2-5.183,8.515-10.586,10.434-6.572,2.337-13.048,5.026-17.836,10.736a105.423,105.423,0,0,1-15.95,14.881c-7.063,5.547-13.926,11.347-20.875,17.037Z" transform="translate(0 41.9)"/>
    </g>
    <path id="Tracé_26" data-name="Tracé 26" d="M-541.836-10.527V0h-6.438q-8.091,0-12.4-3.915t-4.307-13.05v-20.88h-6.7V-48.2h6.7V-60.117h12.267V-48.2h10.788v10.353h-10.788v21.054q0,3.48,1.392,4.872t4.7,1.392Zm37.5-38.367q8.352,0,13.311,5.481t4.959,15.4V0h-12.18V-26.622q0-5.742-2.958-8.917a10.518,10.518,0,0,0-8.091-3.176,10.82,10.82,0,0,0-8.352,3.393q-3.132,3.393-3.132,9.744V0h-12.267V-64.38h12.267v25.839a15.356,15.356,0,0,1,6.307-7.612A18.749,18.749,0,0,1-504.339-48.894Zm27.666-13.137a6.185,6.185,0,0,1,2.088-4.828A7.9,7.9,0,0,1-469.1-68.73a7.9,7.9,0,0,1,5.481,1.871,6.185,6.185,0,0,1,2.088,4.828,6.088,6.088,0,0,1-2.088,4.741,7.9,7.9,0,0,1-5.481,1.87,7.9,7.9,0,0,1-5.481-1.87A6.088,6.088,0,0,1-476.673-62.031ZM-463.014-48.2V0h-12.267V-48.2Zm39.846-.7q8.352,0,13.311,5.481t4.959,15.4V0h-12.18V-26.622q0-5.742-2.958-8.917a10.518,10.518,0,0,0-8.091-3.176,10.82,10.82,0,0,0-8.352,3.393q-3.132,3.393-3.132,9.744V0h-12.267V-48.2h12.267v9.657a15.356,15.356,0,0,1,6.307-7.612A18.75,18.75,0,0,1-423.168-48.894ZM-365.922,0l-15.921-21.054V0H-394.11V-64.38h12.267v36.192l15.834-20.01h14.529l-20.271,24.012L-350.958,0Zm19.488-62.031a6.185,6.185,0,0,1,2.088-4.828,7.9,7.9,0,0,1,5.481-1.871,7.9,7.9,0,0,1,5.481,1.871,6.185,6.185,0,0,1,2.088,4.828,6.088,6.088,0,0,1-2.088,4.741,7.9,7.9,0,0,1-5.481,1.87,7.9,7.9,0,0,1-5.481-1.87A6.088,6.088,0,0,1-346.434-62.031ZM-332.775-48.2V0h-12.267V-48.2Zm39.846-.7q8.352,0,13.311,5.481t4.959,15.4V0h-12.18V-26.622q0-5.742-2.958-8.917a10.518,10.518,0,0,0-8.091-3.176,10.82,10.82,0,0,0-8.352,3.393q-3.132,3.393-3.132,9.744V0h-12.267V-48.2h12.267v9.657a15.356,15.356,0,0,1,6.307-7.612A18.75,18.75,0,0,1-292.929-48.894Zm47.937.087a18.523,18.523,0,0,1,10.44,2.871,15.636,15.636,0,0,1,6.177,7.743V-48.2h12.18V.174a26.753,26.753,0,0,1-2.654,12.049,19.564,19.564,0,0,1-7.917,8.4,25.054,25.054,0,0,1-12.745,3.045q-10.44,0-16.878-4.959a20.517,20.517,0,0,1-7.83-13.485h12.093a9.975,9.975,0,0,0,4.046,5.7,13.4,13.4,0,0,0,7.7,2.045,12.033,12.033,0,0,0,8.7-3.176q3.306-3.175,3.306-9.613V-10.092a15.867,15.867,0,0,1-6.177,7.786A18.317,18.317,0,0,1-244.992.609a20.7,20.7,0,0,1-10.962-2.958,19.984,19.984,0,0,1-7.613-8.569A29.718,29.718,0,0,1-266.307-24.1a29.718,29.718,0,0,1,2.741-13.18,19.984,19.984,0,0,1,7.613-8.569A20.7,20.7,0,0,1-244.992-48.807Zm3.828,10.7a12,12,0,0,0-9.222,3.741q-3.48,3.741-3.48,10.266t3.48,10.223a12.07,12.07,0,0,0,9.222,3.7,12.137,12.137,0,0,0,9.178-3.785q3.61-3.784,3.611-10.136,0-6.438-3.611-10.222A12.137,12.137,0,0,0-241.164-38.106Zm48.372-23.316V0h-12.267V-61.422Zm39.846,12.528q8.352,0,13.311,5.481t4.959,15.4V0h-12.18V-26.622q0-5.742-2.958-8.917a10.518,10.518,0,0,0-8.091-3.176,10.82,10.82,0,0,0-8.352,3.393q-3.132,3.393-3.132,9.744V0h-12.267V-48.2h12.267v9.657a15.356,15.356,0,0,1,6.308-7.612A18.749,18.749,0,0,1-152.946-48.894Zm54.81,38.367V0h-6.438q-8.091,0-12.4-3.915t-4.306-13.05v-20.88h-6.7V-48.2h6.7V-60.117h12.267V-48.2h10.788v10.353h-10.788v21.054q0,3.48,1.392,4.872t4.7,1.392Zm21.054-28.449a20.162,20.162,0,0,1,7.134-7.264,18.952,18.952,0,0,1,9.918-2.653v13.137H-63.6q-13.485,0-13.485,12.528V0H-89.349V-48.2h12.267Zm42.717-9.831a18.523,18.523,0,0,1,10.44,2.871,15.636,15.636,0,0,1,6.177,7.743V-48.2h12.18V0h-12.18V-10.092a15.867,15.867,0,0,1-6.177,7.786A18.317,18.317,0,0,1-34.365.609,20.7,20.7,0,0,1-45.327-2.349a19.984,19.984,0,0,1-7.612-8.569A29.718,29.718,0,0,1-55.68-24.1a29.718,29.718,0,0,1,2.741-13.18,19.984,19.984,0,0,1,7.612-8.569A20.7,20.7,0,0,1-34.365-48.807Zm3.828,10.7a12,12,0,0,0-9.222,3.741q-3.48,3.741-3.48,10.266t3.48,10.223a12.07,12.07,0,0,0,9.222,3.7,12.137,12.137,0,0,0,9.178-3.785q3.61-3.784,3.611-10.136,0-6.438-3.611-10.222A12.137,12.137,0,0,0-30.537-38.106Z" transform="translate(1444.757 2198.197)" fill="#242424"/>
    <path id="Tracé_27" data-name="Tracé 27" d="M4.263-1.624h7.424V0H2.2V-20.445H4.263ZM15.689-22.446a13.909,13.909,0,0,1,.261,2.465q0,2.987-2.639,2.987v-1.015a1.3,1.3,0,0,0,1.044-.377,1.716,1.716,0,0,0,.319-1.131v-.725H13.34v-2.2Zm5.539,3.654v7.714H29.2v1.6H21.228v7.8h8.845V0h-10.9V-20.445h10.9v1.653ZM44.776,0,39.44-8.613,34.481,0H32.132l6.177-10.411L32.074-20.445h2.407l5.249,8.439,4.959-8.439h2.349L40.832-10.208,47.183,0ZM59.015-20.648a9.955,9.955,0,0,1,6.09,1.784A9.452,9.452,0,0,1,68.5-13.949H66.352a7.177,7.177,0,0,0-2.7-3.509,8.007,8.007,0,0,0-4.669-1.305,7.279,7.279,0,0,0-3.843,1.044,7.206,7.206,0,0,0-2.711,2.987,9.87,9.87,0,0,0-.986,4.524,9.78,9.78,0,0,0,.986,4.51,7.225,7.225,0,0,0,2.711,2.973,7.279,7.279,0,0,0,3.843,1.044,8.007,8.007,0,0,0,4.669-1.305,7.177,7.177,0,0,0,2.7-3.509H68.5A9.452,9.452,0,0,1,65.1-1.581,9.955,9.955,0,0,1,59.015.2,9.5,9.5,0,0,1,54-1.131a9.1,9.1,0,0,1-3.422-3.7,11.574,11.574,0,0,1-1.218-5.379,11.727,11.727,0,0,1,1.218-5.423A8.976,8.976,0,0,1,54-19.328,9.576,9.576,0,0,1,59.015-20.648Zm15.254,1.856v7.714h7.975v1.6H74.269v7.8h8.845V0H72.21V-20.445h10.9v1.653ZM88.711-1.624h7.424V0H86.652V-20.445h2.059Zm12.267,0H108.4V0H98.919V-20.445h2.059Zm12.267-17.168v7.714h7.975v1.6h-7.975v7.8h8.845V0h-10.9V-20.445h10.9v1.653ZM140.94,0h-2.059L127.687-17.081V0h-2.059V-20.416h2.059l11.194,17.11v-17.11h2.059Zm13.4-20.648a9.954,9.954,0,0,1,6.09,1.784,9.452,9.452,0,0,1,3.393,4.915h-2.146a7.177,7.177,0,0,0-2.7-3.509,8.007,8.007,0,0,0-4.669-1.305,7.279,7.279,0,0,0-3.842,1.044,7.206,7.206,0,0,0-2.711,2.987,9.87,9.87,0,0,0-.986,4.524,9.78,9.78,0,0,0,.986,4.51,7.225,7.225,0,0,0,2.711,2.973,7.279,7.279,0,0,0,3.842,1.044,8.007,8.007,0,0,0,4.669-1.305,7.177,7.177,0,0,0,2.7-3.509h2.146a9.452,9.452,0,0,1-3.393,4.916A9.955,9.955,0,0,1,154.338.2a9.5,9.5,0,0,1-5.017-1.334,9.1,9.1,0,0,1-3.422-3.7,11.574,11.574,0,0,1-1.218-5.379,11.727,11.727,0,0,1,1.218-5.423,8.976,8.976,0,0,1,3.422-3.7A9.576,9.576,0,0,1,154.338-20.648Zm15.254,1.856v7.714h7.975v1.6h-7.975v7.8h8.845V0h-10.9V-20.445h10.9v1.653Zm39.73-1.218V0h-2.03V-16.762L200.361,0h-1.827l-6.96-16.7V0h-2.059V-20.01h2.407l7.54,17.487,7.482-17.487Zm16.24,15.022h-9.309L214.4,0h-2.175l7.54-19.981h2.291L229.593,0h-2.2Zm-.609-1.624-4.031-11.02-4.089,11.02ZM247.747,0h-2.059L234.494-17.081V0h-2.059V-20.416h2.059l11.194,17.11v-17.11h2.059Zm16.211-4.988h-9.309L252.793,0h-2.175l7.54-19.981h2.291L267.989,0h-2.2Zm-.609-1.624-4.031-11.02-4.089,11.02Zm16.7-14.007a9.78,9.78,0,0,1,5.887,1.74,8.772,8.772,0,0,1,3.306,4.727h-2.117a6.952,6.952,0,0,0-2.654-3.335,7.656,7.656,0,0,0-4.423-1.276,7.746,7.746,0,0,0-3.987,1.044,7.272,7.272,0,0,0-2.8,2.987,9.636,9.636,0,0,0-1.015,4.524,9.654,9.654,0,0,0,1.03,4.582,7.308,7.308,0,0,0,2.842,2.987A8.129,8.129,0,0,0,280.256-1.6a7.878,7.878,0,0,0,3.77-.913,7.147,7.147,0,0,0,2.77-2.654,9.033,9.033,0,0,0,1.233-4.089h-8.5v-1.537H289.8v1.8a10.528,10.528,0,0,1-1.465,4.7A9.161,9.161,0,0,1,284.94-1,9.707,9.707,0,0,1,280.082.2a10.054,10.054,0,0,1-5.162-1.32,9.052,9.052,0,0,1-3.509-3.7,11.439,11.439,0,0,1-1.247-5.394,11.439,11.439,0,0,1,1.247-5.394,9.081,9.081,0,0,1,3.495-3.7A9.976,9.976,0,0,1,280.053-20.619Zm15.515,1.827v7.714h7.975v1.6h-7.975v7.8h8.845V0h-10.9V-20.445h10.9v1.653Zm8.352-6.438-5.945,3.509v-1.508l5.945-3.712ZM318.913,0l-5.6-8.526H310.01V0h-2.059V-20.445h6.264a7.2,7.2,0,0,1,5.148,1.624,5.777,5.777,0,0,1,1.7,4.379,5.645,5.645,0,0,1-1.436,4.06,6.473,6.473,0,0,1-4.161,1.8L321.233,0Zm-8.9-10.063h4.06q4.93,0,4.93-4.263,0-4.35-4.93-4.35h-4.06Zm16.5-10.382V0h-2.059V-20.445ZM342.722-4.988h-9.309L331.557,0h-2.175l7.54-19.981h2.291L346.753,0h-2.2Zm-.609-1.624-4.031-11.02-4.089,11.02Zm9.541,4.988h7.424V0H349.6V-20.445h2.059Zm12.267-17.168v7.714H371.9v1.6h-7.975v7.8h8.845V0h-10.9V-20.445h10.9v1.653Z" transform="translate(1070.757 2274.197)"/>
  </g>
</svg>
