<?xml version="1.0" encoding="UTF-8" standalone="no"?><!DOCTYPE svg PUBLIC "-//W3C//DTD SVG 1.1//EN" "http://www.w3.org/Graphics/SVG/1.1/DTD/svg11.dtd"><svg width="100%" height="100%" viewBox="0 0 236 64" version="1.1" xmlns="http://www.w3.org/2000/svg" xmlns:xlink="http://www.w3.org/1999/xlink" xml:space="preserve" xmlns:serif="http://www.serif.com/" style="fill-rule:evenodd;clip-rule:evenodd;stroke-linejoin:round;stroke-miterlimit:2;"><g id="Groupe_2"><rect id="Rectangle_3" x="0" y="0" width="236" height="64" style="fill:#33787a;"/><g><g id="Groupe_1"><g id="thinkingIntra"><path d="M73.77,31.887l0,3.363l-1.761,0c-1.495,0 -2.658,-0.37 -3.489,-1.109c-0.831,-0.74 -1.246,-1.964 -1.246,-3.672l0,-4.689l-1.716,0l0,-3.294l1.716,0l0,-3.134l3.911,0l0,3.134l2.562,0l0,3.294l-2.562,0l0,4.758c0,0.503 0.103,0.854 0.309,1.052c0.206,0.198 0.553,0.297 1.041,0.297l1.235,0Z" style="fill:#fff;fill-rule:nonzero;"/><path d="M84.064,22.348c1.464,0 2.627,0.489 3.488,1.465c0.862,0.976 1.293,2.317 1.293,4.026l0,7.411l-3.912,0l0,-6.954c0,-0.854 -0.225,-1.521 -0.675,-2.002c-0.45,-0.48 -1.048,-0.72 -1.795,-0.72c-0.793,0 -1.422,0.251 -1.888,0.755c-0.465,0.503 -0.697,1.22 -0.697,2.15l0,6.771l-3.912,0l0,-16.927l3.912,0l0,6.496c0.366,-0.763 0.911,-1.365 1.635,-1.807c0.725,-0.442 1.575,-0.664 2.551,-0.664Z" style="fill:#fff;fill-rule:nonzero;"/><path d="M91.064,18.894c0,-0.594 0.213,-1.086 0.64,-1.475c0.427,-0.389 0.991,-0.583 1.693,-0.583c0.701,0 1.266,0.194 1.693,0.583c0.427,0.389 0.64,0.881 0.64,1.475c0,0.58 -0.213,1.064 -0.64,1.453c-0.427,0.389 -0.992,0.583 -1.693,0.583c-0.702,0 -1.266,-0.194 -1.693,-0.583c-0.427,-0.389 -0.64,-0.873 -0.64,-1.453Zm4.277,3.592l0,12.764l-3.911,0l0,-12.764l3.911,0Z" style="fill:#fff;fill-rule:nonzero;"/><path d="M106.138,22.348c1.464,0 2.627,0.489 3.489,1.465c0.861,0.976 1.292,2.317 1.292,4.026l0,7.411l-3.912,0l0,-6.954c0,-0.854 -0.224,-1.521 -0.674,-2.002c-0.45,-0.48 -1.049,-0.72 -1.796,-0.72c-0.793,0 -1.422,0.251 -1.887,0.755c-0.465,0.503 -0.698,1.22 -0.698,2.15l0,6.771l-3.912,0l0.001,-12.764l3.911,0l0,2.333c0.366,-0.762 0.911,-1.365 1.636,-1.807c0.724,-0.442 1.574,-0.663 2.55,-0.663Z" style="fill:#fff;fill-rule:nonzero;"/><path d="M121.236,35.25l-3.82,-5.421l0,5.421l-3.912,0l0,-16.927l3.912,0l0,9.287l3.82,-5.124l4.598,0l-5.147,6.382l5.261,6.382l-4.712,0Z" style="fill:#fff;fill-rule:nonzero;"/><path d="M127,18.894c0,-0.594 0.214,-1.086 0.641,-1.475c0.427,-0.389 0.991,-0.583 1.692,-0.583c0.702,0 1.266,0.194 1.693,0.583c0.427,0.389 0.641,0.881 0.641,1.475c0,0.58 -0.214,1.064 -0.641,1.453c-0.427,0.389 -0.991,0.583 -1.693,0.583c-0.701,0 -1.265,-0.194 -1.692,-0.583c-0.427,-0.389 -0.641,-0.873 -0.641,-1.453Zm4.278,3.592l0,12.764l-3.912,0l0,-12.764l3.912,0Z" style="fill:#fff;fill-rule:nonzero;"/><path d="M142.075,22.348c1.464,0 2.627,0.489 3.488,1.465c0.862,0.976 1.293,2.317 1.293,4.026l0,7.411l-3.912,0l0,-6.954c0,-0.854 -0.225,-1.521 -0.675,-2.002c-0.45,-0.48 -1.048,-0.72 -1.795,-0.72c-0.793,0 -1.422,0.251 -1.888,0.755c-0.465,0.503 -0.697,1.22 -0.697,2.15l0,6.771l-3.912,0l0,-12.764l3.912,0l0,2.333c0.366,-0.762 0.911,-1.365 1.635,-1.807c0.725,-0.442 1.575,-0.663 2.551,-0.663Z" style="fill:#fff;fill-rule:nonzero;"/><path d="M154.29,22.326c0.976,0 1.815,0.221 2.516,0.663c0.702,0.442 1.22,1.045 1.556,1.807l0,-2.31l3.889,0l0,12.695c0,1.19 -0.229,2.261 -0.687,3.214c-0.457,0.953 -1.159,1.712 -2.104,2.276c-0.946,0.565 -2.12,0.847 -3.523,0.847c-1.921,0 -3.458,-0.454 -4.609,-1.361c-1.152,-0.908 -1.842,-2.139 -2.07,-3.695l3.865,0c0.123,0.519 0.401,0.923 0.835,1.213c0.435,0.289 1.003,0.434 1.705,0.434c0.808,0 1.46,-0.232 1.955,-0.697c0.496,-0.465 0.744,-1.209 0.744,-2.231l0,-2.241c-0.336,0.762 -0.854,1.364 -1.556,1.807c-0.701,0.442 -1.54,0.663 -2.516,0.663c-1.052,0 -1.994,-0.263 -2.825,-0.789c-0.831,-0.526 -1.487,-1.285 -1.967,-2.276c-0.481,-0.991 -0.721,-2.15 -0.721,-3.477c0,-1.342 0.24,-2.505 0.721,-3.489c0.48,-0.983 1.136,-1.738 1.967,-2.264c0.831,-0.526 1.773,-0.789 2.825,-0.789Zm1.258,3.431c-0.839,0 -1.513,0.274 -2.024,0.823c-0.511,0.549 -0.767,1.312 -0.767,2.288c0,0.976 0.256,1.738 0.767,2.287c0.511,0.549 1.185,0.824 2.024,0.824c0.824,0 1.499,-0.282 2.025,-0.846c0.526,-0.565 0.789,-1.32 0.789,-2.265c0,-0.961 -0.263,-1.72 -0.789,-2.276c-0.526,-0.557 -1.201,-0.835 -2.025,-0.835Z" style="fill:#fff;fill-rule:nonzero;"/><rect x="164.95" y="19.077" width="3.912" height="16.173" style="fill:#fff;fill-rule:nonzero;"/><path d="M179.658,22.348c1.464,0 2.627,0.489 3.489,1.465c0.862,0.976 1.292,2.317 1.292,4.026l0,7.411l-3.911,0l0,-6.954c0,-0.854 -0.225,-1.521 -0.675,-2.002c-0.45,-0.48 -1.049,-0.72 -1.796,-0.72c-0.793,0 -1.422,0.251 -1.887,0.755c-0.465,0.503 -0.698,1.22 -0.698,2.15l0,6.771l-3.911,0l0,-12.764l3.911,0l0,2.333c0.366,-0.762 0.912,-1.365 1.636,-1.807c0.724,-0.442 1.574,-0.663 2.55,-0.663Z" style="fill:#fff;fill-rule:nonzero;"/><path d="M194.253,31.887l0,3.363l-1.762,0c-1.494,0 -2.657,-0.37 -3.488,-1.109c-0.831,-0.74 -1.247,-1.964 -1.247,-3.672l0,-4.689l-1.715,0l0,-3.294l1.715,0l0,-3.134l3.912,0l0,3.134l2.562,0l0,3.294l-2.562,0l0,4.758c0,0.503 0.103,0.854 0.309,1.052c0.206,0.198 0.552,0.297 1.04,0.297l1.236,0Z" style="fill:#fff;fill-rule:nonzero;"/><path d="M200.36,24.888c0.488,-0.778 1.117,-1.396 1.888,-1.853c0.77,-0.458 1.605,-0.687 2.504,-0.687l0,4.187l-1.121,0c-1.037,0 -1.841,0.221 -2.413,0.663c-0.572,0.442 -0.858,1.189 -0.858,2.242l0,5.81l-3.911,0l0,-12.764l3.911,0l0,2.402Z" style="fill:#fff;fill-rule:nonzero;"/><path d="M211.249,22.326c0.976,0 1.815,0.221 2.516,0.663c0.702,0.442 1.22,1.045 1.556,1.807l0,-2.31l3.888,0l0,12.764l-3.888,0l0,-2.31c-0.336,0.762 -0.854,1.364 -1.556,1.807c-0.701,0.442 -1.54,0.663 -2.516,0.663c-1.052,0 -1.994,-0.263 -2.825,-0.789c-0.831,-0.526 -1.487,-1.285 -1.967,-2.276c-0.481,-0.991 -0.721,-2.15 -0.721,-3.477c0,-1.342 0.24,-2.505 0.721,-3.489c0.48,-0.983 1.136,-1.738 1.967,-2.264c0.831,-0.526 1.773,-0.789 2.825,-0.789Zm1.258,3.431c-0.839,0 -1.514,0.274 -2.024,0.823c-0.511,0.549 -0.767,1.312 -0.767,2.288c0,0.976 0.256,1.738 0.767,2.287c0.51,0.549 1.185,0.824 2.024,0.824c0.823,0 1.498,-0.282 2.024,-0.846c0.527,-0.565 0.79,-1.32 0.79,-2.265c0,-0.961 -0.263,-1.72 -0.79,-2.276c-0.526,-0.557 -1.201,-0.835 -2.024,-0.835Z" style="fill:#fff;fill-rule:nonzero;"/></g><g id="CABINET_CONSEIL"><path d="M162.587,44.535c0.635,0 1.16,0.154 1.575,0.461c0.415,0.308 0.708,0.731 0.877,1.271l-0.555,0c-0.139,-0.38 -0.372,-0.682 -0.697,-0.907c-0.325,-0.225 -0.727,-0.337 -1.208,-0.337c-0.364,0 -0.696,0.09 -0.993,0.27c-0.298,0.179 -0.531,0.437 -0.702,0.772c-0.169,0.335 -0.255,0.725 -0.255,1.17c0,0.445 0.085,0.834 0.255,1.166c0.171,0.333 0.404,0.589 0.702,0.769c0.297,0.18 0.629,0.27 0.993,0.27c0.481,0 0.883,-0.112 1.208,-0.337c0.325,-0.225 0.558,-0.528 0.697,-0.908l0.555,0c-0.169,0.54 -0.462,0.964 -0.877,1.271c-0.415,0.308 -0.94,0.462 -1.575,0.462c-0.485,0 -0.918,-0.115 -1.298,-0.345c-0.38,-0.23 -0.674,-0.549 -0.885,-0.957c-0.21,-0.407 -0.315,-0.871 -0.315,-1.391c0,-0.525 0.105,-0.992 0.315,-1.403c0.21,-0.41 0.505,-0.728 0.885,-0.956c0.38,-0.227 0.813,-0.341 1.298,-0.341Z" style="fill:#fff;fill-rule:nonzero;"/><path d="M169.052,48.585l-2.407,0l-0.48,1.29l-0.563,0l1.95,-5.168l0.593,0l1.95,5.168l-0.57,0l-0.473,-1.29Zm-0.157,-0.42l-1.043,-2.85l-1.057,2.85l2.1,0Z" style="fill:#fff;fill-rule:nonzero;"/><path d="M173.252,47.138c0.33,0.065 0.597,0.217 0.802,0.457c0.206,0.24 0.308,0.525 0.308,0.855c0,0.425 -0.145,0.769 -0.435,1.031c-0.29,0.263 -0.71,0.394 -1.26,0.394l-1.838,0l0,-5.287l1.815,0c0.53,0 0.929,0.118 1.197,0.356c0.267,0.237 0.401,0.556 0.401,0.956c0,0.345 -0.093,0.621 -0.278,0.829c-0.185,0.207 -0.422,0.343 -0.712,0.409Zm-1.89,-0.188l1.215,0c0.37,0 0.651,-0.086 0.844,-0.259c0.192,-0.172 0.288,-0.408 0.288,-0.708c0,-0.295 -0.095,-0.528 -0.285,-0.698c-0.19,-0.17 -0.482,-0.255 -0.877,-0.255l-1.185,0l0,1.92Zm1.215,2.475c0.395,0 0.702,-0.091 0.922,-0.274c0.22,-0.182 0.33,-0.436 0.33,-0.761c0,-0.32 -0.112,-0.574 -0.337,-0.761c-0.225,-0.188 -0.535,-0.281 -0.93,-0.281l-1.2,0l0,2.077l1.215,0Z" style="fill:#fff;fill-rule:nonzero;"/><rect x="175.262" y="44.588" width="0.532" height="5.288" style="fill:#fff;fill-rule:nonzero;"/><path d="M180.895,49.875l-0.533,0l-2.895,-4.417l0,4.417l-0.532,0l0,-5.28l0.532,0l2.895,4.425l0,-4.425l0.532,0l0,5.28Z" style="fill:#fff;fill-rule:nonzero;"/><path d="M182.567,45.015l0,1.995l2.063,0l0,0.413l-2.063,0l0,2.017l2.287,0l0,0.435l-2.82,0l0,-5.288l2.82,0l0,0.428l-2.287,0Z" style="fill:#fff;fill-rule:nonzero;"/><path d="M188.867,44.588l0,0.427l-1.507,0l0,4.86l-0.525,0l0,-4.86l-1.5,0l0,-0.428l3.532,0Z" style="fill:#fff;fill-rule:nonzero;"/><path d="M193.847,44.535c0.635,0 1.16,0.154 1.575,0.461c0.415,0.308 0.708,0.731 0.877,1.271l-0.555,0c-0.139,-0.38 -0.372,-0.682 -0.697,-0.907c-0.325,-0.225 -0.727,-0.337 -1.208,-0.337c-0.364,0 -0.696,0.09 -0.993,0.27c-0.298,0.179 -0.531,0.437 -0.702,0.772c-0.169,0.335 -0.255,0.725 -0.255,1.17c0,0.445 0.085,0.834 0.255,1.166c0.171,0.333 0.404,0.589 0.702,0.769c0.297,0.18 0.629,0.27 0.993,0.27c0.481,0 0.883,-0.112 1.208,-0.337c0.325,-0.225 0.558,-0.528 0.697,-0.908l0.555,0c-0.169,0.54 -0.462,0.964 -0.877,1.271c-0.415,0.308 -0.94,0.462 -1.575,0.462c-0.485,0 -0.918,-0.115 -1.298,-0.345c-0.38,-0.23 -0.674,-0.549 -0.885,-0.957c-0.21,-0.407 -0.315,-0.871 -0.315,-1.391c0,-0.525 0.105,-0.992 0.315,-1.403c0.21,-0.41 0.505,-0.728 0.885,-0.956c0.38,-0.227 0.813,-0.341 1.298,-0.341Z" style="fill:#fff;fill-rule:nonzero;"/><path d="M199.66,44.528c0.49,0 0.93,0.114 1.32,0.345c0.39,0.23 0.696,0.55 0.918,0.959c0.223,0.41 0.334,0.876 0.334,1.395c0,0.52 -0.111,0.987 -0.334,1.399c-0.222,0.413 -0.528,0.734 -0.918,0.964c-0.39,0.23 -0.83,0.345 -1.32,0.345c-0.49,0 -0.93,-0.115 -1.32,-0.345c-0.391,-0.23 -0.697,-0.551 -0.919,-0.964c-0.223,-0.412 -0.334,-0.879 -0.334,-1.399c0,-0.52 0.111,-0.985 0.334,-1.395c0.222,-0.41 0.529,-0.73 0.919,-0.959c0.389,-0.23 0.829,-0.345 1.32,-0.345Zm0,0.487c-0.385,0 -0.732,0.09 -1.039,0.27c-0.308,0.18 -0.55,0.437 -0.728,0.772c-0.177,0.335 -0.266,0.725 -0.266,1.17c0,0.445 0.089,0.835 0.266,1.17c0.178,0.335 0.42,0.593 0.728,0.773c0.307,0.18 0.654,0.27 1.038,0.27c0.385,0 0.732,-0.09 1.039,-0.27c0.308,-0.18 0.55,-0.438 0.728,-0.773c0.177,-0.335 0.266,-0.725 0.266,-1.17c0,-0.445 -0.089,-0.835 -0.266,-1.17c-0.178,-0.335 -0.42,-0.592 -0.728,-0.772c-0.307,-0.18 -0.654,-0.27 -1.038,-0.27Z" style="fill:#fff;fill-rule:nonzero;"/><path d="M207.152,49.875l-0.532,0l-2.895,-4.417l0,4.417l-0.533,0l0,-5.28l0.532,0l2.895,4.425l0,-4.425l0.533,0l0,5.28Z" style="fill:#fff;fill-rule:nonzero;"/><path d="M211.517,48.533c0,0.239 -0.056,0.466 -0.169,0.678c-0.112,0.213 -0.286,0.385 -0.521,0.518c-0.235,0.132 -0.528,0.199 -0.877,0.199c-0.34,0 -0.643,-0.063 -0.908,-0.188c-0.265,-0.125 -0.476,-0.296 -0.634,-0.514c-0.157,-0.217 -0.249,-0.461 -0.274,-0.731l0.555,0c0.02,0.155 0.078,0.31 0.173,0.465c0.095,0.155 0.232,0.284 0.412,0.386c0.18,0.103 0.398,0.154 0.653,0.154c0.335,0 0.591,-0.09 0.769,-0.27c0.177,-0.18 0.266,-0.407 0.266,-0.682c0,-0.235 -0.059,-0.427 -0.176,-0.574c-0.118,-0.148 -0.263,-0.261 -0.435,-0.341c-0.173,-0.08 -0.409,-0.168 -0.709,-0.263c-0.33,-0.105 -0.596,-0.206 -0.799,-0.304c-0.202,-0.097 -0.374,-0.241 -0.514,-0.431c-0.139,-0.19 -0.209,-0.442 -0.209,-0.758c0,-0.399 0.139,-0.724 0.419,-0.974c0.28,-0.25 0.665,-0.375 1.155,-0.375c0.5,0 0.897,0.122 1.189,0.367c0.293,0.245 0.466,0.55 0.522,0.915l-0.563,0c-0.045,-0.225 -0.164,-0.425 -0.356,-0.6c-0.193,-0.175 -0.457,-0.262 -0.792,-0.262c-0.31,0 -0.557,0.08 -0.742,0.24c-0.185,0.16 -0.278,0.382 -0.278,0.667c0,0.225 0.058,0.408 0.173,0.548c0.115,0.14 0.256,0.247 0.424,0.322c0.167,0.075 0.396,0.16 0.686,0.255c0.335,0.105 0.606,0.207 0.814,0.307c0.207,0.1 0.383,0.25 0.528,0.45c0.145,0.2 0.218,0.465 0.218,0.795Z" style="fill:#fff;fill-rule:nonzero;"/><path d="M213.01,45.015l0,1.995l2.062,0l0,0.413l-2.063,0l0,2.017l2.288,0l0,0.435l-2.82,0l0,-5.288l2.82,0l0,0.428l-2.288,0Z" style="fill:#fff;fill-rule:nonzero;"/><rect x="216.212" y="44.588" width="0.532" height="5.288" style="fill:#fff;fill-rule:nonzero;"/><path d="M218.417,49.455l1.92,0l0,0.42l-2.452,0l0,-5.288l0.532,0l0,4.868Z" style="fill:#fff;fill-rule:nonzero;"/></g></g><path d="M34.244,52.959c0.04,-0.011 0.079,-0.021 0.119,-0.031c0.193,-0.814 0.393,-1.626 0.577,-2.442c0.041,-0.183 0.166,-0.433 -0.094,-0.536c-0.286,-0.112 -0.604,-0.083 -0.9,-0.004c-0.251,0.068 -0.267,0.285 -0.225,0.496c0.17,0.84 0.348,1.678 0.523,2.517m11.653,-31.547c-0.12,-1.351 -1.116,-2.326 -2.768,-2.777c0.833,0.836 1.84,1.846 2.768,2.777m-20.142,-2.953c-2.213,0.842 -3.004,1.629 -3.133,3.138c1.05,-1.051 2.149,-2.152 3.133,-3.138m14.86,21.976c-0.645,2.239 -0.045,3.653 1.884,4.521c-0.626,-1.501 -1.227,-2.943 -1.884,-4.521m11.948,-12.11c0.035,-0.025 0.07,-0.051 0.104,-0.076c-0.519,-1.289 -1.039,-2.578 -1.605,-3.982c-0.349,0.462 -0.594,0.783 -0.835,1.108c-0.149,0.201 -0.214,0.42 -0.014,0.62c0.779,0.781 1.566,1.554 2.35,2.33m-35.105,-3.956c-0.544,1.363 -1.074,2.691 -1.604,4.02c0.882,-0.722 1.663,-1.511 2.456,-2.288c0.242,-0.238 0.296,-0.451 0.045,-0.713c-0.294,-0.306 -0.457,-0.727 -0.897,-1.019m8.512,20.809c0.043,0.046 0.086,0.092 0.129,0.138c0.465,-0.497 0.921,-1.004 1.399,-1.488c0.961,-0.972 1.093,-1.888 0.399,-3.236c-0.656,1.56 -1.291,3.073 -1.927,4.586m16.777,-31.95c-0.158,0.336 -0.243,0.489 -0.304,0.651c-0.291,0.759 -0.578,1.52 -0.861,2.283c-0.14,0.38 -0.043,0.554 0.383,0.41c0.554,-0.189 1.105,-0.383 1.659,-0.569c0.32,-0.107 0.371,-0.299 0.224,-0.587c-0.345,-0.674 -0.681,-1.352 -1.101,-2.188m-1.347,25.262c0.039,0.03 0.078,0.06 0.117,0.09c1.295,-0.908 2.589,-1.815 4.046,-2.837c-0.727,-0.148 -1.248,-0.238 -1.761,-0.363c-0.34,-0.083 -0.524,0.075 -0.684,0.335c-0.57,0.926 -1.145,1.85 -1.718,2.775m-15.516,-25.253c-1.638,2.412 -1.572,2.685 0.657,3.309c0.049,0.013 0.097,0.033 0.145,0.05c0.335,0.117 0.442,-0.015 0.328,-0.328c-0.356,-0.973 -0.723,-1.943 -1.13,-3.031m1.235,25.378c0.028,-0.027 0.055,-0.053 0.083,-0.079c-0.614,-0.986 -1.229,-1.971 -1.84,-2.959c-0.123,-0.199 -0.277,-0.274 -0.511,-0.221c-0.555,0.127 -1.114,0.24 -1.845,0.396c1.474,1.025 2.794,1.944 4.113,2.863m18.727,-6.945c-0.053,-0.017 -0.105,-0.034 -0.157,-0.051c-0.625,1.002 -1.252,2.002 -1.874,3.005c-0.088,0.142 -0.112,0.317 0.097,0.365c0.519,0.118 1.041,0.226 1.567,0.305c0.251,0.037 0.363,-0.154 0.365,-0.385c0.004,-1.08 0.002,-2.159 0.002,-3.239m-23.029,-0.156c-0.047,0.006 -0.094,0.011 -0.141,0.016c0,0.74 -0.01,1.48 0.002,2.22c0.027,1.796 -0.32,1.692 1.686,1.311c0.513,-0.097 0.494,-0.284 0.259,-0.652c-0.612,-0.958 -1.206,-1.929 -1.806,-2.895m0.439,-12.088c1.332,-0.782 2.476,-1.454 3.772,-2.215c-0.884,-0.296 -1.6,-0.528 -2.311,-0.776c-0.373,-0.13 -0.497,0.074 -0.594,0.375c-0.256,0.795 -0.525,1.587 -0.867,2.616m21.798,-0.17c-0.152,-1.027 -0.203,-2.138 -0.858,-2.746c-0.453,-0.422 -1.328,0.328 -2.033,0.483c-0.073,0.016 -0.146,0.043 -0.215,0.075c-0.25,0.114 -0.222,0.259 -0.017,0.379c1.038,0.608 2.082,1.207 3.123,1.809m-4.249,19.316c1.262,-2.021 2.476,-3.963 3.689,-5.904c-0.936,0.767 -1.702,1.696 -2.624,2.431c-1.148,0.915 -1.388,2.016 -1.065,3.473m-16.561,-5.969c-0.042,0.045 -0.084,0.09 -0.126,0.134c1.231,1.964 2.461,3.928 3.692,5.893c0.123,-0.533 0.128,-1.013 0.122,-1.492c-0.005,-0.375 0.045,-0.75 -0.272,-1.066c-1.148,-1.147 -2.278,-2.311 -3.416,-3.469m7.009,-16.068c0.036,0.098 -0.118,0.346 0.108,0.471c0.186,0.101 0.332,-0.077 0.475,-0.168c0.557,-0.355 1.105,-0.724 1.659,-1.084c0.269,-0.174 0.447,-0.353 0.143,-0.654c-0.525,-0.518 -1.04,-1.045 -1.566,-1.562c-0.283,-0.278 -0.479,-0.275 -0.524,0.183c-0.09,0.909 -0.19,1.818 -0.295,2.814m6.149,0.758c-0.163,-1.47 -0.305,-2.746 -0.47,-4.239c-0.788,0.8 -1.442,1.462 -2.093,2.126c-0.206,0.21 -0.096,0.352 0.105,0.484c0.763,0.502 1.523,1.008 2.458,1.629m-3.336,2.714c0,-1.359 0.001,-2.542 -0.001,-3.725c-0.001,-0.319 -0.16,-0.333 -0.387,-0.182c-0.656,0.435 -1.311,0.87 -1.964,1.308c-0.277,0.185 -0.297,0.386 -0.033,0.606c0.751,0.625 1.5,1.253 2.385,1.993m-2.894,-6.424l-0.195,-0.087c-0.903,1.05 -1.807,2.098 -2.705,3.153c-0.055,0.065 -0.095,0.199 -0.066,0.27c0.09,0.22 2.327,0.495 2.48,0.312c0.047,-0.057 0.086,-0.134 0.095,-0.206c0.133,-1.147 0.262,-2.294 0.391,-3.442m9.44,3.389c-1.123,-1.284 -2.124,-2.43 -3.126,-3.576c0.023,1.257 0.169,2.438 0.311,3.62c0.036,0.296 0.197,0.377 0.477,0.33c0.723,-0.123 1.448,-0.233 2.338,-0.374m-6.154,3.008c0.998,-0.675 1.754,-1.382 2.539,-2.053c0.231,-0.197 0.152,-0.33 -0.058,-0.469c-0.677,-0.446 -1.351,-0.897 -2.023,-1.35c-0.297,-0.2 -0.461,-0.172 -0.46,0.23c0.004,1.162 0.002,2.323 0.002,3.642m4.973,29.447c-0.981,-1.06 -1.808,-1.95 -2.629,-2.845c-0.293,-0.32 -0.467,-0.238 -0.562,0.149c-0.174,0.717 -0.345,1.435 -0.517,2.152c-0.087,0.363 0.073,0.541 0.428,0.542c1.016,0.006 2.031,0.002 3.28,0.002m-10.123,-0.257c0.045,0.088 0.09,0.176 0.135,0.265l1.278,0c2.608,0 2.608,0 1.877,-2.523c-0.028,-0.097 -0.054,-0.196 -0.091,-0.291c-0.103,-0.269 -0.266,-0.284 -0.461,-0.096c-0.914,0.881 -1.825,1.763 -2.738,2.645m21.399,-25.138c-0.003,-0.317 -0.212,-0.444 -0.382,-0.588c-0.641,-0.543 -1.293,-1.071 -1.93,-1.616c-0.259,-0.221 -0.548,-0.408 -0.754,-0.025c-0.206,0.383 -0.962,0.653 -0.375,1.262c0.671,0.695 1.364,1.37 2.051,2.05c0.106,0.105 0.257,0.28 0.385,0.179c0.44,-0.348 0.747,-0.813 1.005,-1.262m-4.854,-0.419c-0.031,-0.03 -0.063,-0.059 -0.094,-0.089c-0.912,0.545 -1.836,1.072 -2.73,1.643c-0.525,0.335 -1.437,0.485 -1.474,1.052c-0.035,0.543 0.825,0.882 1.243,1.356c0.05,0.058 0.108,0.108 0.164,0.16c0.156,0.147 0.303,0.185 0.434,-0.032c0.819,-1.363 1.638,-2.727 2.457,-4.09m-11.186,29.764c0.048,0.03 0.096,0.061 0.145,0.092c1.398,-1.124 2.796,-2.248 4.194,-3.372c-0.035,-0.065 -0.07,-0.13 -0.105,-0.194l-2.887,0c-0.356,0 -0.566,0.173 -0.647,0.521c-0.23,0.985 -0.466,1.969 -0.7,2.953m-15.724,-28.028c0.104,-0.059 0.182,-0.083 0.234,-0.134c0.76,-0.753 1.586,-1.455 2.249,-2.286c0.389,-0.488 -0.314,-0.806 -0.537,-1.188c-0.19,-0.329 -0.423,-0.136 -0.629,0.037c-0.703,0.59 -1.407,1.178 -2.114,1.762c-0.201,0.167 -0.44,0.324 -0.212,0.62c0.317,0.412 0.54,0.914 1.009,1.189m10.663,24.564c-0.021,0.064 -0.041,0.129 -0.062,0.193c1.402,1.114 2.805,2.229 4.207,3.343c-0.052,-1.112 -0.26,-2.123 -0.469,-3.135c-0.055,-0.265 -0.237,-0.396 -0.489,-0.398c-1.063,-0.008 -2.125,-0.003 -3.187,-0.003m-6.741,-26.386c-0.039,0.04 -0.078,0.08 -0.116,0.121c0.637,1.057 1.271,2.116 1.913,3.171c0.813,1.336 0.648,1.229 1.742,0.264c1.034,-0.91 1.035,-0.916 -0.142,-1.601c-1.129,-0.657 -2.264,-1.304 -3.397,-1.955m14.001,22.028c2.041,0.168 3.86,0.317 5.84,0.48c-0.918,-0.918 -1.708,-1.709 -2.497,-2.5c-0.174,-0.175 -0.351,-0.301 -0.595,-0.111c-0.856,0.667 -1.715,1.33 -2.748,2.131m-14.166,-15.573c0.377,-0.066 0.546,-0.27 0.741,-0.425c1.581,-1.265 1.583,-1.269 0.529,-3.029c-0.486,-0.81 -0.991,-1.61 -1.487,-2.414c-0.061,0.023 -0.122,0.046 -0.183,0.069c0.132,1.915 0.265,3.829 0.4,5.799m3.297,15.883c0.036,0.049 0.071,0.098 0.106,0.147c1.863,-0.149 3.726,-0.297 5.811,-0.463c-1.101,-0.802 -2.002,-1.456 -2.9,-2.113c-0.216,-0.158 -0.408,-0.167 -0.607,0.032c-0.801,0.801 -1.606,1.598 -2.41,2.397m20.307,-21.845c-0.054,-0.018 -0.108,-0.036 -0.161,-0.053c-0.79,1.323 -1.578,2.648 -2.372,3.969c-0.147,0.243 -0.09,0.438 0.11,0.602c0.601,0.493 1.208,0.979 1.979,1.602c0.157,-2.165 0.3,-4.143 0.444,-6.12m-12.019,25.416c0.495,-0.012 0.926,0.077 1.045,-0.502c0.17,-0.818 0.372,-1.629 0.567,-2.44c0.1,-0.414 -0.071,-0.546 -0.47,-0.535c-0.658,0.018 -1.319,0.026 -1.976,-0.003c-0.485,-0.021 -0.644,0.153 -0.536,0.625c0.152,0.666 0.324,1.333 0.406,2.009c0.083,0.675 0.398,0.951 0.964,0.846m12.761,-26.046c-0.075,0.041 -0.151,0.082 -0.227,0.124c-0.147,2.032 -0.295,4.064 -0.442,6.096c1.035,-1.13 1.927,-2.317 2.82,-3.502c0.151,-0.199 0.11,-0.377 -0.051,-0.544c-0.699,-0.725 -1.4,-1.45 -2.1,-2.174m-16.033,-10.483c-1.595,0 -2.943,0.001 -4.29,-0.001c-0.323,0 -0.499,0.108 -0.368,0.461c0.364,0.979 0.727,1.957 1.097,2.934c0.112,0.299 0.268,0.333 0.491,0.078c0.969,-1.105 1.946,-2.202 3.07,-3.472m-9.031,16.674c0.105,-0.131 0.162,-0.17 0.16,-0.206c-0.107,-1.87 -0.218,-3.74 -0.333,-5.61c-0.021,-0.343 -0.19,-0.409 -0.432,-0.171c-0.67,0.656 -1.329,1.325 -1.992,1.988c-0.149,0.15 -0.155,0.315 -0.032,0.479c0.868,1.166 1.74,2.33 2.629,3.52m14.788,16.389c1.023,1.11 1.927,2.093 2.835,3.073c0.129,0.139 0.313,0.247 0.469,0.097c0.88,-0.844 1.745,-1.704 2.752,-2.693c-2.131,-0.168 -4.01,-0.316 -6.056,-0.477m-9.532,-10.92l0.202,-0.063c-0.69,-1.923 -1.383,-3.846 -2.068,-5.771c-0.125,-0.349 -0.328,-0.351 -0.578,-0.158c-0.483,0.371 -0.949,0.765 -1.439,1.126c-0.419,0.308 -0.382,0.573 -0.032,0.92c1.315,1.305 2.612,2.629 3.915,3.946m10.478,-22.273c-0.035,0.06 -0.07,0.121 -0.105,0.181c1,1.138 1.999,2.277 3.002,3.414c0.29,0.329 0.425,0.101 0.528,-0.165c0.367,-0.948 0.727,-1.898 1.091,-2.847c0.152,-0.396 0.008,-0.583 -0.405,-0.583l-4.111,0m-11.78,33.659c-0.031,0.069 -0.063,0.138 -0.095,0.207c0.84,0.813 1.681,1.624 2.517,2.44c0.188,0.183 0.354,0.267 0.581,0.044c0.989,-0.975 1.959,-1.967 2.951,-3.15c-2.085,0.16 -4.02,0.31 -5.954,0.459m15.112,-11.202c0.176,-0.119 0.223,-0.141 0.257,-0.175c0.917,-0.914 1.844,-1.817 2.744,-2.747c0.525,-0.543 1.502,-1.027 1.455,-1.649c-0.056,-0.723 -1.118,-1.054 -1.711,-1.591c-0.018,-0.017 -0.041,-0.03 -0.059,-0.048c-0.254,-0.254 -0.412,-0.204 -0.532,0.136c-0.697,1.982 -1.403,3.962 -2.154,6.074m11.904,-5.898c-1.086,-1.075 -1.988,-1.968 -2.89,-2.861c-0.21,-0.208 -0.433,-0.291 -0.644,-0.014c-0.93,1.227 -1.854,2.458 -2.901,3.847c2.211,-0.334 4.205,-0.635 6.435,-0.972m-25.379,11.025c-0.041,-0.023 -0.082,-0.046 -0.123,-0.07c-1.728,1.292 -3.456,2.584 -5.185,3.875c-0.333,0.249 -0.382,0.456 0.062,0.639c0.799,0.328 1.596,0.66 2.385,1.011c0.346,0.154 0.544,0.123 0.701,-0.265c0.706,-1.735 1.438,-3.461 2.16,-5.19m-5.537,-10.047c-1.071,-1.438 -2.008,-2.693 -2.942,-3.952c-0.137,-0.185 -0.283,-0.205 -0.443,-0.044c-0.963,0.967 -1.923,1.937 -3,3.023c2.152,0.328 4.147,0.632 6.385,0.973m18.863,9.801c0.814,1.956 1.548,3.69 2.251,5.437c0.161,0.399 0.378,0.419 0.709,0.274c0.747,-0.325 1.486,-0.672 2.247,-0.961c0.582,-0.22 0.592,-0.422 0.107,-0.78c-1.718,-1.27 -3.424,-2.556 -5.314,-3.97m-6.538,-10.043c-0.059,0.008 -0.117,0.016 -0.176,0.023c-0.564,1.976 -1.125,3.952 -1.693,5.926c-0.096,0.333 -0.07,0.537 0.356,0.531c0.939,-0.014 1.88,-0.013 2.819,-0.001c0.45,0.006 0.51,-0.2 0.398,-0.577c-0.173,-0.584 -0.315,-1.177 -0.485,-1.762c-0.401,-1.381 -0.812,-2.76 -1.219,-4.14m12.21,5.388c1.382,0.172 2.563,0.31 3.742,0.472c0.492,0.068 0.738,-0.122 0.888,-0.591c0.485,-1.523 1.008,-3.034 1.503,-4.554c0.045,-0.138 0.216,-0.308 -0.027,-0.5c-1.985,1.681 -3.972,3.364 -6.106,5.173m-24.557,0.003c-2.205,-1.864 -4.214,-3.562 -6.378,-5.39c0.622,1.887 1.168,3.55 1.717,5.212c0.113,0.341 0.209,0.707 0.696,0.65c1.249,-0.148 2.498,-0.298 3.965,-0.472m0.261,-0.283c0,-1.477 0.002,-2.742 -0.001,-4.008c-0.001,-0.259 -0.121,-0.44 -0.392,-0.482c-1.917,-0.295 -3.835,-0.589 -5.753,-0.883c-0.02,0.047 -0.039,0.093 -0.059,0.139c2.013,1.698 4.025,3.395 6.205,5.234m30.448,-5.434c-2.1,0.33 -3.976,0.64 -5.857,0.911c-0.495,0.072 -0.632,0.318 -0.626,0.767c0.013,1.043 0,2.087 0.007,3.13c0.001,0.162 -0.084,0.39 0.151,0.455c0.162,0.046 0.267,-0.117 0.381,-0.215c1.918,-1.628 3.835,-3.257 5.944,-5.048m-12.3,5.406c0.054,0.002 0.108,0.003 0.162,0.005c0.761,-2.142 1.523,-4.283 2.284,-6.425c0.065,-0.184 0.039,-0.362 -0.096,-0.497c-0.471,-0.476 -0.884,-1.018 -1.535,-1.425c-0.045,0.667 0.033,1.288 -0.725,1.568c-0.573,0.211 -1.08,0.606 -1.826,0.287c0.601,2.246 1.168,4.367 1.736,6.487m-12.795,-8.367c-0.721,0.317 -1.077,0.876 -1.591,1.226c-0.385,0.262 -0.433,0.539 -0.27,0.967c0.559,1.473 1.075,2.961 1.614,4.441c0.209,0.574 0.324,1.19 0.749,1.824c0.552,-2.07 1.067,-4.005 1.587,-5.938c0.079,-0.296 0.037,-0.384 -0.313,-0.497c-0.936,-0.301 -2.077,-0.491 -1.776,-2.023m19.636,16.758c0.061,0.009 0.123,0.019 0.185,0.029c1.046,-2.245 2.094,-4.488 3.138,-6.733c0.169,-0.363 0.013,-0.503 -0.354,-0.539c-1.034,-0.102 -2.077,-0.166 -3.096,-0.355c-0.677,-0.125 -0.858,0.021 -0.762,0.695c0.192,1.331 0.327,2.67 0.496,4.004c0.123,0.967 0.261,1.932 0.393,2.899m-26.125,0.08c0.064,-0.018 0.129,-0.037 0.194,-0.055c0.088,-0.728 0.176,-1.455 0.264,-2.183c0.196,-1.641 0.394,-3.283 0.587,-4.925c0.031,-0.272 0.12,-0.61 -0.356,-0.558c-1.162,0.127 -2.321,0.281 -3.485,0.388c-0.51,0.046 -0.526,0.258 -0.341,0.643c0.43,0.895 0.848,1.796 1.269,2.695c0.623,1.331 1.245,2.663 1.868,3.995m9.462,-12.049c-0.123,1.326 0.113,2.989 0.407,4.644c0.038,0.214 -0.079,0.602 0.276,0.615c0.309,0.012 0.552,-0.207 0.648,-0.548c0.624,-2.204 1.249,-4.408 1.892,-6.606c0.122,-0.418 -0.086,-0.55 -0.413,-0.652c-0.705,-0.22 -1.414,-0.428 -2.108,-0.677c-0.503,-0.179 -0.716,-0.05 -0.705,0.492c0.015,0.789 0.003,1.578 0.003,2.732m7.423,-0.317c0,-1.044 -0.02,-1.783 0.007,-2.52c0.02,-0.526 -0.171,-0.614 -0.636,-0.443c-0.692,0.254 -1.39,0.502 -2.103,0.683c-0.546,0.138 -0.676,0.371 -0.512,0.912c0.621,2.045 1.205,4.101 1.799,6.153c0.064,0.223 0.118,0.449 0.308,0.599c0.137,0.109 0.279,0.26 0.47,0.212c0.217,-0.053 0.196,-0.266 0.219,-0.439c0.238,-1.813 0.601,-3.617 0.448,-5.157m-16.402,12.939c2.046,-1.539 3.912,-2.953 5.792,-4.348c0.476,-0.353 0.11,-0.473 -0.13,-0.641c-1.314,-0.923 -2.644,-1.822 -3.936,-2.774c-0.509,-0.374 -0.703,-0.35 -0.782,0.307c-0.293,2.422 -0.611,4.84 -0.944,7.456m25.173,-0.135c0.159,-0.228 0.102,-0.41 0.081,-0.578c-0.287,-2.266 -0.608,-4.528 -0.858,-6.798c-0.079,-0.718 -0.303,-0.585 -0.723,-0.289c-1.287,0.909 -2.573,1.82 -3.885,2.693c-0.583,0.387 -0.469,0.632 0.021,0.989c1.252,0.913 2.477,1.864 3.718,2.793c0.541,0.405 1.095,0.793 1.646,1.19m-17.429,-1.069c0.245,0.436 0.682,0.545 0.952,0.829c1.489,1.572 3.352,1.862 5.382,1.635c0.252,-0.028 0.515,0.004 0.733,-0.163c0.849,-0.65 1.699,-1.301 2.545,-1.955c0.258,-0.2 0.258,-0.361 -0.086,-0.463c-1.465,-0.434 -2.928,-0.875 -4.394,-1.305c-0.118,-0.035 -0.262,-0.047 -0.377,-0.013c-1.577,0.47 -3.15,0.949 -4.755,1.435m0.214,-17.218c-0.027,-0.107 -0.051,-0.205 -0.077,-0.304c-0.629,-2.408 -1.264,-4.814 -1.884,-7.224c-0.144,-0.561 -0.337,-0.504 -0.69,-0.148c-1.377,1.387 -2.77,2.76 -4.168,4.127c-0.339,0.333 -0.354,0.539 0.098,0.792c1.529,0.855 3.044,1.738 4.559,2.621c0.519,0.303 1.098,0.385 1.67,0.494c0.271,0.051 0.529,0.027 0.492,-0.358m9.648,0.46c0.079,-0.021 0.128,-0.037 0.178,-0.045c2.509,-0.415 4.352,-2.138 6.48,-3.302c0.347,-0.19 0.139,-0.429 -0.049,-0.617c-1.424,-1.42 -2.853,-2.835 -4.274,-4.258c-0.343,-0.343 -0.484,-0.238 -0.585,0.19c-0.175,0.743 -0.385,1.477 -0.58,2.215c-0.468,1.773 -0.936,3.546 -1.404,5.318c-0.065,0.247 -0.199,0.528 0.234,0.499m-9.283,3.946c-0.36,1.377 -0.647,2.778 -1.095,4.126c-0.861,2.594 -0.571,5.17 -0.073,7.764c0.069,0.355 0.239,0.527 0.567,0.415c1.433,-0.489 3.004,-0.612 4.242,-1.628c0.581,-0.477 0.648,-0.964 0.173,-1.548c-0.591,-0.726 -1.42,-1.077 -2.232,-1.422c-0.66,-0.279 -0.881,-0.727 -0.971,-1.391c-0.282,-2.092 -0.617,-4.178 -0.611,-6.316m8.593,-0.273c-0.003,2.312 -0.179,4.585 -0.529,6.854c-0.096,0.621 -0.35,0.931 -0.911,1.154c-0.872,0.345 -1.738,0.721 -2.354,1.495c-0.441,0.554 -0.37,0.959 0.168,1.406c0.917,0.762 2.03,1.013 3.125,1.336c1.686,0.498 1.648,0.5 1.965,-1.222c0.282,-1.536 0.537,-3.099 0.225,-4.618c-0.444,-2.159 -1.115,-4.272 -1.689,-6.405m-4.469,-5.347c0,-1.12 0.001,-2.241 0,-3.362c-0.001,-0.28 0.022,-0.582 -0.229,-0.776c-1.543,-1.188 -2.795,-2.85 -5.038,-2.867c-0.854,-0.006 -0.919,-0.062 -0.705,0.756c0.6,2.289 1.396,4.547 1.758,6.872c0.327,2.099 1.45,3.009 3.359,3.311c0.025,0.004 0.049,0.016 0.072,0.025c0.573,0.21 0.798,-0.002 0.788,-0.597c-0.018,-1.12 -0.005,-2.241 -0.005,-3.362m5.886,-7.011c-0.793,0.284 -1.893,0.042 -2.735,0.783c-0.746,0.656 -1.511,1.29 -2.279,1.92c-0.315,0.258 -0.492,0.546 -0.49,0.975c0.014,2.242 0.017,4.484 0,6.726c-0.005,0.642 0.281,0.747 0.814,0.567c0.724,-0.245 1.446,-0.496 2.177,-0.716c0.414,-0.125 0.632,-0.381 0.735,-0.787c0.226,-0.889 0.472,-1.772 0.705,-2.659c0.543,-2.068 1.08,-4.138 1.627,-6.205c0.096,-0.364 0.168,-0.685 -0.554,-0.604m-5.854,36.787c-0.903,-0.981 -2.01,-1.722 -3.046,-2.541c-1.683,-1.329 -3.337,-2.686 -4.78,-4.274c-0.722,-0.793 -1.536,-1.424 -2.567,-1.711c-1.822,-0.508 -2.84,-1.669 -3.625,-3.42c-1.764,-3.932 -3.525,-7.851 -4.772,-11.985c-0.196,-0.648 -0.214,-1.216 0.051,-1.842c0.595,-1.408 1.15,-2.833 1.702,-4.259c0.174,-0.448 0.467,-0.776 0.83,-1.07c0.693,-0.56 1.364,-1.148 2.069,-1.694c0.383,-0.297 0.436,-0.54 0.112,-0.931c-0.503,-0.608 -0.931,-1.277 -1.427,-1.891c-0.278,-0.345 -0.264,-0.605 0.015,-0.935c0.542,-0.642 1.075,-1.294 1.571,-1.972c0.33,-0.451 0.721,-0.59 1.255,-0.487c0.674,0.131 1.363,0.193 2.031,0.347c0.443,0.102 0.66,-0.053 0.841,-0.427c0.355,-0.733 0.761,-1.443 1.1,-2.184c0.197,-0.433 0.486,-0.617 0.946,-0.615c1.529,0.007 3.059,0.006 4.588,0.002c0.436,-0.001 0.778,0.167 1.08,0.48c0.584,0.605 1.207,1.173 1.776,1.791c0.351,0.382 0.592,0.338 0.924,-0.021c0.57,-0.617 1.197,-1.183 1.772,-1.796c0.304,-0.324 0.646,-0.464 1.08,-0.462c1.504,0.007 3.008,0.013 4.512,-0.004c0.501,-0.006 0.789,0.188 0.991,0.651c0.315,0.724 0.709,1.412 1.044,2.128c0.188,0.402 0.412,0.58 0.892,0.463c0.666,-0.163 1.354,-0.231 2.03,-0.356c0.495,-0.092 0.874,0.01 1.193,0.448c0.464,0.637 0.966,1.251 1.494,1.838c0.393,0.436 0.431,0.798 0.039,1.261c-0.46,0.543 -0.843,1.152 -1.29,1.707c-0.296,0.367 -0.333,0.635 0.082,0.946c0.468,0.35 0.857,0.813 1.345,1.128c1.092,0.706 1.643,1.742 2.061,2.927c0.44,1.247 0.998,2.453 1.505,3.677l0,0.458c-0.136,0.356 -0.279,0.71 -0.406,1.069c-0.894,2.515 -1.568,5.108 -2.766,7.515c-0.804,1.616 -1.595,3.246 -2.275,4.917c-0.443,1.09 -1.086,1.784 -2.218,2.186c-1.377,0.49 -2.734,1.053 -3.737,2.25c-0.98,1.168 -2.137,2.171 -3.342,3.118c-1.48,1.162 -2.918,2.377 -4.374,3.57l-0.306,0Z" style="fill:#fff;fill-rule:nonzero;"/></g></g></svg>