<svg xmlns="http://www.w3.org/2000/svg" width="37.2" height="37.2" viewBox="0 0 37.2 37.2">
  <path id="icons8-behance-squared" d="M5,5V42.2H42.2V5ZM8.382,8.382H38.819V38.819H8.382Zm3.382,7.388V30.331h7.068c2.638-.017,5.126-1.285,5.126-4.244A3.767,3.767,0,0,0,21.3,22.18a2.853,2.853,0,0,0,1.978-2.807c0-2.908-2.147-3.6-4.65-3.6ZM27.22,16.836v1.437H33.1V16.836ZM14.977,18h3.009c1.133,0,2.183.322,2.183,1.658,0,1.234-.812,1.74-1.962,1.74h-3.23ZM30.3,19.254a5.276,5.276,0,0,0-5.38,5.565c0,3.28,2.049,5.545,5.38,5.545a4.7,4.7,0,0,0,4.937-3.55H32.679A2.4,2.4,0,0,1,30.4,28.184a2.375,2.375,0,0,1-2.586-2.672H35.4c.017-.169.033-.372.033-.558C35.437,21.843,33.6,19.254,30.3,19.254Zm-.1,2.166a2.16,2.16,0,0,1,2.315,2.266h-4.7A2.253,2.253,0,0,1,30.2,21.42Zm-15.235,2.4h3.5c1.4,0,2.3.589,2.3,2.094,0,1.454-1.066,1.912-2.368,1.912H14.961Z" transform="translate(-5 -5)" fill="#fff"/>
</svg>
