<?xml version="1.0" encoding="UTF-8" standalone="no"?><!DOCTYPE svg PUBLIC "-//W3C//DTD SVG 1.1//EN" "http://www.w3.org/Graphics/SVG/1.1/DTD/svg11.dtd"><svg width="100%" height="100%" viewBox="0 0 306 218" version="1.1" xmlns="http://www.w3.org/2000/svg" xmlns:xlink="http://www.w3.org/1999/xlink" xml:space="preserve" xmlns:serif="http://www.serif.com/" style="fill-rule:evenodd;clip-rule:evenodd;stroke-linecap:square;stroke-linejoin:round;stroke-miterlimit:1.5;"><g id="Carte"><path d="M101.49,103.683c0.071,0.23 0.09,0.395 0.167,0.523c0.45,0.75 0.259,0.99 -0.621,1.114c-0.822,0.116 -1.725,0.024 -2.547,0.535c2.022,1.058 4.004,1.995 6.162,2.513c0.306,0.074 0.615,0.257 0.806,-0.121c0.233,-0.463 0.798,-0.823 0.605,-1.431c-0.451,-1.419 -2.752,-3.007 -4.572,-3.133m-82.351,-63.203c-0.214,-1.151 -0.398,-2.178 -0.601,-3.201c-0.054,-0.27 0.019,-0.652 -0.505,-0.575c-2.086,0.305 -4.177,0.583 -6.22,0.864c-0.057,0.339 0.07,0.434 0.206,0.509c5.213,2.864 10.664,4.829 16.741,4.435c0.221,-0.015 0.536,0.087 0.557,-0.236c0.027,-0.441 -0.381,-0.301 -0.604,-0.315c-1.775,-0.11 -3.552,-0.195 -5.399,-0.292c0.293,-1.104 0.576,-2.17 0.908,-3.419c-1.791,0.786 -3.403,1.494 -5.083,2.23m115.093,92.692c-0.406,0.107 -0.677,0.421 -0.875,0.733c-0.99,1.557 -2.417,1.752 -4.156,1.833c-2.17,0.102 -3.741,-0.407 -4.776,-2.366c-0.351,-0.662 -0.815,-0.95 -0.994,0.123c-0.095,0.567 -0.42,0.53 -0.838,0.448c-2.769,-0.541 -5.567,-0.966 -7.997,-2.585c-0.516,-0.343 -0.772,-0.527 -0.283,-1.111c0.595,-0.712 1.014,-1.579 1.647,-2.248c0.826,-0.875 0.739,-1.686 0.139,-2.58c-0.108,-0.161 -0.193,-0.341 -0.318,-0.486c-0.404,-0.467 -1.254,-1.156 -1.154,-1.341c0.348,-0.651 1.006,-1.145 1.578,-1.663c0.92,-0.834 1.863,-1.644 2.801,-2.458c0.357,-0.311 0.619,-0.536 0.035,-0.953c-1.614,-1.156 -1.741,-3.303 -0.213,-4.883c-1.127,-0.314 -2.149,-0.659 -3.273,-0.553c-4.478,0.417 -8.959,0.816 -13.435,1.253c-0.735,0.071 -1.277,-0.042 -1.593,-0.778c-1.088,-2.542 -3.044,-3.98 -5.89,-4.281c0.303,-0.489 0.485,-0.784 0.667,-1.079c0.702,-0.504 1.077,-1.296 1.668,-1.896c0.33,-0.334 0.198,-0.658 -0.093,-0.885c-0.431,-0.335 -0.483,0.146 -0.61,0.364c-0.422,0.724 -1.001,1.364 -1.196,2.211c-0.291,0.375 -0.579,0.589 -1.027,0.164c-1.289,-1.222 -2.784,-2.215 -3.966,-3.56c-0.564,0.561 -0.268,1.752 -1.02,1.956c-0.666,0.18 -1.501,-0.22 -2.251,-0.403c-0.592,-0.145 -0.73,0.093 -0.745,0.643c-0.054,1.874 -0.181,3.755 1.431,5.161c0.058,0.051 0.137,0.112 0.147,0.178c0.206,1.304 -1.114,1.655 -1.597,2.535c-0.314,0.57 -0.666,0.284 -1.019,-0.019c-0.353,-0.302 -0.707,-0.638 -1.121,-0.828c-2.019,-0.926 -2.363,-2.44 -1.794,-4.443c0.337,-1.186 0.462,-2.437 0.614,-3.667c0.202,-1.621 -0.794,-2.826 -1.709,-3.919c-1.268,-1.515 -2.766,-2.838 -4.186,-4.223c-0.271,-0.265 -0.611,-0.489 -0.96,-0.642c-2.497,-1.097 -4.924,-2.405 -7.663,-2.824c-0.713,-0.108 -1.079,-0.484 -1.416,-1.038c-0.746,-1.226 -1.546,-2.419 -2.277,-3.653c-0.311,-0.524 -0.658,-0.796 -1.295,-0.736c-2.315,0.218 -4.547,-0.393 -6.805,-0.736c-0.227,-0.034 -0.588,-0.084 -0.641,-0.22c-0.691,-1.8 -2.25,-0.927 -3.421,-1.077c-1.729,-0.223 -3.486,-0.248 -5.232,-0.32c-0.915,-0.037 -1.574,-0.305 -2.049,-1.196c-0.766,-1.434 -1.713,-2.771 -2.539,-4.174c-0.295,-0.498 -0.545,-0.755 -1.182,-0.523c-1.909,0.696 -3.706,0.463 -5.297,-0.855c-1.453,-1.205 -3.108,-1.068 -5.093,-0.785c1.854,1.223 0.909,2.352 0.262,3.593c-0.451,0.866 -1.047,1.075 -1.928,1.144c-3.976,0.31 -7.896,0.084 -11.841,-1.141c0.565,-1.14 1.148,-2.341 1.754,-3.53c0.257,-0.503 0.355,-0.982 0.197,-1.558c-0.215,-0.782 -0.455,-1.596 -0.449,-2.394c0.025,-3.539 -2.56,-5.542 -4.476,-7.982c-1.162,-1.481 -2.418,-2.28 -4.308,-1.8c-0.924,0.235 -1.57,-0.224 -2.121,-0.877c-0.846,-1.002 -1.807,-1.408 -3.178,-1.081c-1.811,0.432 -2.935,-1.125 -4.361,-1.81c-0.175,-0.085 -0.119,-0.26 -0.021,-0.393c0.117,-0.154 0.286,-0.282 0.363,-0.453c0.988,-2.171 2.764,-2.644 4.993,-2.657c3.802,-0.021 7.585,-0.404 11.349,-1.048c1.903,-0.326 3.879,-0.196 5.815,0.029c1.5,0.174 3.074,-1.522 2.77,-3.028c-0.061,-0.304 -0.173,-0.597 -0.217,-0.903c-0.242,-1.639 -0.845,-2.661 -2.791,-2.965c-1.845,-0.287 -3.35,-1.72 -5.007,-2.642c-0.667,-0.371 -0.947,-0.305 -1.35,0.32c-1.246,1.934 -2.278,4.07 -4.556,5.249c-0.155,-2.204 0.126,-4.355 0.227,-6.501c0.056,-1.204 -0.328,-1.723 -1.44,-2.011c-1.269,-0.329 -2.497,-0.814 -3.834,-1.262c1.462,-1.72 2.883,-3.392 4.303,-5.065c0.12,-0.118 0.448,-0.237 0,-0.356c-0.845,0.113 -1.689,0.235 -2.536,0.333c-0.345,0.04 -0.877,0.181 -1.016,0.016c-0.929,-1.097 -1.377,-0.136 -1.943,0.379c-0.112,0.103 -0.256,0.278 -0.366,0.264c-1.617,-0.194 -3.234,-0.387 -4.84,-0.645c-0.451,-0.073 -0.211,-0.501 -0.161,-0.773c0.251,-1.373 0.423,-2.769 0.807,-4.104c0.38,-1.321 -0.121,-2.346 -0.785,-3.353c-0.429,-0.649 -0.373,-1.052 0.288,-1.52c1.012,-0.718 1.934,-1.561 2.909,-2.33c0.449,-0.354 0.503,-0.629 -0.016,-0.969c-0.518,-0.34 -0.962,-0.811 -1.508,-1.09c-1.088,-0.557 -1.046,-1.104 -0.258,-1.944c1.089,-1.161 2.091,-2.406 3.073,-3.659c0.331,-0.421 0.669,-0.547 1.173,-0.56c1.865,-0.047 3.729,-0.161 5.594,-0.199c0.627,-0.013 1.076,-0.08 1.042,-0.853c-0.009,-0.185 0.146,-0.381 0.128,-0.562c-0.19,-1.979 1.434,-2.304 2.686,-2.969c0.514,-0.273 0.86,0.15 1.113,0.407c1.398,1.421 3.092,0.595 4.652,0.639c0.6,0.017 0.406,-0.664 0.388,-1.043c-0.031,-0.67 0.148,-0.94 0.89,-1.007c1.814,-0.163 3.621,-0.429 5.422,-0.71c0.74,-0.115 0.984,0.125 1.129,0.848c0.436,2.173 0.462,2.124 2.603,1.537c0.897,-0.246 0.951,-1.014 1.125,-1.61c0.329,-1.131 0.963,-1.554 2.104,-1.484c0.611,0.038 1.237,-0.092 1.85,-0.188c1.948,-0.304 3.857,-0.327 5.617,0.741c0.534,0.324 0.841,0.051 1.19,-0.317c0.953,-1.007 1.755,-2.159 2.993,-3.134c0.2,2.046 0.44,3.954 0.548,5.87c0.044,0.788 0.347,0.924 0.999,0.789c0.151,-0.032 0.308,-0.04 0.461,-0.069c1.818,-0.336 1.866,-0.347 2.246,1.418c0.14,0.65 0.387,0.833 0.995,0.777c0.74,-0.069 0.446,-0.62 0.456,-0.972c0.035,-1.205 0.045,-2.413 0.001,-3.616c-0.024,-0.626 0.136,-0.901 0.812,-0.918c2.409,-0.062 4.817,-0.228 7.225,-0.237c0.949,-0.004 1.668,0.765 2.467,1.221c2.376,1.358 2.38,1.385 3.921,-0.822c0.571,-0.818 1.657,-1.557 1.565,-2.48c-0.083,-0.84 -0.971,-1.632 -1.588,-2.376c-0.429,-0.517 -0.411,-0.795 0.154,-1.163c1.757,-1.139 3.501,-2.298 5.218,-3.496c0.5,-0.349 0.826,-0.362 1.305,0.036c0.955,0.792 1.993,1.485 2.96,2.263c0.503,0.404 0.892,0.445 1.173,-0.174c0.48,-1.06 1.435,-1.164 2.405,-1.275c1.388,-0.159 2.775,-0.318 4.16,-0.498c1.162,-0.151 1.879,-1.061 2.707,-1.726c0.752,-0.604 0.995,-0.419 1.256,0.37c0.205,0.618 0.518,1.199 0.948,2.17c0.187,-2.241 1.599,-1.728 2.753,-1.742c1.128,-0.013 2.257,0.033 3.383,-0.016c0.662,-0.029 0.87,0.171 0.823,0.843c-0.155,2.23 -0.136,2.254 2.085,2.44c0.563,0.047 0.782,0.195 0.639,0.761c-0.056,0.225 -0.07,0.462 -0.089,0.694c-0.241,3.039 -0.245,3.059 2.756,3.708c0.751,0.162 1.089,0.498 0.937,1.254c-0.578,2.89 0.545,4.924 3.157,6.157c1.89,0.893 2.27,2.277 1.833,4.244c-0.477,2.15 -0.348,2.177 1.621,3.108c0.876,0.413 1.716,0.929 2.628,1.23c1.093,0.359 1.374,1.033 1.275,2.092c-0.083,0.887 -0.009,1.787 -0.02,2.681c-0.005,0.401 0.07,0.666 0.563,0.671c0.466,0.005 0.689,-0.203 0.589,-0.622c-0.44,-1.838 0.779,-2.467 2.119,-3.136c2.046,-1.02 3.998,-2.234 6.059,-3.22c1.588,-0.76 2.802,-1.77 3.335,-3.478c0.324,-1.035 0.9,-1.383 1.999,-1.03c0.876,0.282 1.83,0.317 2.742,0.497c0.694,0.137 1.277,0.004 1.839,-0.444c0.965,-0.77 1.972,-1.487 3.111,-2.338l0,4.586c0.181,0.046 0.262,0.096 0.32,0.077c0.487,-0.163 0.637,-0.956 1.172,-0.848c1.019,0.205 2.006,0.577 3.002,0.896c0.284,0.091 0.218,0.374 0.244,0.594c0.064,0.541 0.14,1.08 0.176,1.623c0.103,1.497 0.648,1.823 2.1,1.336c0.592,-0.198 0.453,-0.643 0.52,-1.033c0.351,-2.055 0.384,-2.235 2.436,-1.826c2.471,0.492 4.381,0.056 5.688,-2.217c1.262,-2.196 3.118,-2.805 5.58,-2.333c1.35,0.259 2.79,0.046 4.511,0.046c-1.117,1.506 -2.031,2.819 -3.034,4.058c-0.518,0.639 -0.466,0.874 0.227,1.391c2.211,1.651 4.577,2.328 7.362,2.134c3.019,-0.21 6.065,-0.011 9.097,-0.072c0.799,-0.015 1.093,0.291 1.221,0.982c0.434,2.323 1.205,4.552 1.873,6.811c0.241,0.813 0.612,1.467 1.271,2.01c1.021,0.84 1.973,1.76 2.98,2.616c1.501,1.277 2.301,1.24 3.335,-0.37c0.759,-1.183 1.653,-1.886 3.084,-1.78c0.505,0.037 0.771,-0.308 1.046,-0.633c0.752,-0.891 1.518,-1.771 2.235,-2.69c0.378,-0.483 0.71,-0.518 1.138,-0.107c0.197,0.188 0.438,0.329 0.626,0.523c1.16,1.185 2.528,1.72 4.201,1.471c1.259,-0.187 2.255,0.566 3.207,1.178c1.589,1.021 4.234,1.151 5.548,-0.105c1.109,-1.059 2.15,-1.32 3.428,-0.443c0.093,0.064 0.212,0.096 0.323,0.126c1.741,0.463 3.014,1.455 3.697,3.165c0.555,1.394 1.894,1.997 2.97,2.867c0.389,0.314 0.628,0.074 0.914,-0.12c0.965,-0.651 1.956,-1.268 2.889,-1.96c0.52,-0.384 0.944,-0.444 1.398,0.028c1.364,1.423 2.691,1.452 4.291,0.22c1.371,-1.058 2.985,-1.797 4.472,-2.708c0.497,-0.305 0.968,-0.359 1.541,-0.265c1.986,0.324 3.984,0.574 5.973,0.875c1.169,0.177 2.048,-0.628 3.086,-0.849c1.286,-0.274 1.637,-1.252 2.046,-2.267c0.525,-1.305 3.195,-1.914 4.297,-1.008c0.059,0.049 0.104,0.121 0.17,0.158c2.409,1.338 2.567,3.767 2.869,6.079c0.16,1.224 0.492,2.131 1.864,2.342c1.673,0.26 2.29,1.386 2.655,2.954c0.656,2.813 0.749,2.75 3.603,2.865c0.936,0.038 1.585,-0.232 2.252,-0.876c1.926,-1.865 3.933,-3.648 5.895,-5.477c0.299,-0.278 0.583,-0.446 1.012,-0.457c2.215,-0.055 4.43,-0.126 6.643,-0.236c0.613,-0.03 0.95,0.232 1.368,0.648c1.863,1.858 2.259,4.221 2.511,6.674c0.178,1.732 0.482,3.451 0.677,5.181c0.049,0.425 0.229,0.627 0.579,0.757c0.109,0.04 0.223,0.07 0.336,0.093c2.755,0.556 4.737,2.097 5.925,4.649c0.258,0.555 0.672,0.766 1.303,0.733c1.009,-0.053 2.025,0.034 3.032,-0.031c0.638,-0.042 1.435,0.407 1.84,-0.635c0.16,-0.41 1.812,-0.056 2.132,0.421c0.919,1.372 1.944,2.679 2.6,4.213c0.494,1.155 1.537,1.272 2.585,1.349c2.441,0.178 3.901,2.089 5.759,3.281c0.478,0.308 -0.152,0.659 -0.339,0.901c-1.566,2.025 -3.198,3.994 -4.43,6.264c-0.391,0.722 -0.535,1.215 0.25,1.693c1.681,1.022 1.951,2.557 1.766,4.392c-0.228,2.274 -0.396,4.536 -1.136,6.728c-0.262,0.781 -0.582,1.076 -1.425,1.037c-1.589,-0.074 -1.709,-0.008 -1.564,1.585c0.211,2.295 -0.49,4.09 -1.928,5.929c-1.475,1.887 -3.086,3.283 -5.375,3.899c-1.214,0.327 -1.709,1.404 -2.372,2.288c-0.34,0.452 0.146,0.859 0.285,1.27c0.271,0.802 1.034,1.761 0.8,2.329c-0.299,0.725 -1.553,0.621 -2.392,0.874c-1.516,0.458 -3.034,0.939 -4.582,1.243c-1.194,0.234 -1.707,1.067 -2.287,1.943c-0.997,1.501 -1.012,1.488 -2.503,0.529c-0.257,-0.165 -0.524,-0.313 -1,-0.596c0.404,1.372 0.707,2.548 1.105,3.691c0.251,0.718 0.112,0.86 -0.658,0.976c-2.404,0.36 -4.274,-0.606 -6.027,-2.077c-0.644,-0.542 -1.405,-0.946 -2.113,-1.413c-0.395,0.741 -0.794,1.482 -1.185,2.225c-0.181,0.343 -0.321,0.71 -0.531,1.031c-0.549,0.839 -0.619,1.538 0.226,2.302c0.64,0.578 0.676,2.408 0.019,3.002c-2.305,2.081 -2.622,4.709 -2.146,7.513c0.223,1.309 -0.147,2.251 -1.058,3.083c-2.807,2.565 -4.166,5.85 -4.879,9.507c-0.339,1.739 -0.935,3.427 -1.39,5.144c-0.166,0.626 -0.422,1.032 -1.166,0.89c-1.026,-0.197 -1.714,0.286 -2.407,1.03c-2.325,2.495 -4.894,4.786 -6.194,8.21c-1.215,-1.164 -2.687,-1.795 -3.137,-3.397c-0.178,-0.633 -0.691,-0.478 -1.135,-0.492c-4.295,-0.132 -8.479,0.649 -12.676,1.438c-2.162,0.406 -4.391,0.478 -6.594,0.629c-0.644,0.042 -0.843,0.291 -0.728,0.838c0.474,2.26 -0.668,3.455 -2.52,4.546c-1.343,0.791 -2.48,1.095 -3.97,0.648c-1.808,-0.544 -3.68,-0.88 -5.522,-1.315c-0.664,-0.156 -1.271,-0.092 -1.905,0.206c-1.294,0.607 -2.622,1.139 -4.005,1.731c0.252,0.378 0.438,0.719 0.682,1.013c1.221,1.468 2.142,3.031 1.759,5.061c-0.12,0.637 0.339,0.966 0.77,1.32c1.77,1.458 3.508,2.955 5.296,4.391c0.52,0.418 0.708,0.796 0.299,1.347c-1.534,2.062 -1.096,3.757 0.855,5.293c0.723,0.568 1.228,1.403 1.891,2.056c0.443,0.437 0.333,0.704 -0.009,1.14c-1.544,1.967 -1.651,2.076 -0.118,4.003c1.269,1.597 1.34,3.41 1.577,5.235c0.17,1.307 0.232,2.629 0.455,3.926c0.161,0.937 -0.45,1.465 -0.917,2.035c-0.51,0.621 -0.591,1.147 -0.062,1.739c1.424,1.595 1.356,3.174 0.087,4.849c-0.439,0.581 -0.976,1.256 -0.593,2.124c0.076,0.004 0.17,0.039 0.22,0.006c1.66,-1.108 1.659,-1.108 3.06,0.308c0.546,0.553 1.076,1.125 1.645,1.654c0.406,0.376 0.327,0.573 -0.107,0.864c-1.795,1.202 -3.814,2.118 -5.115,3.965c-0.118,0.165 -0.391,0.264 -0.609,0.306c-2.038,0.386 -3.89,1.266 -5.727,2.171c-0.57,0.281 -0.976,0.254 -1.468,-0.156c-0.804,-0.669 -1.713,-1.216 -2.498,-1.904c-0.816,-0.715 -1.556,-0.945 -2.585,-0.362c-0.968,0.549 -2.098,0.81 -3.081,1.338c-0.931,0.5 -1.253,0.169 -1.509,-0.701c-0.26,-0.887 -0.689,-1.726 -0.941,-2.616c-0.188,-0.662 -0.539,-0.817 -1.176,-0.798c-1.455,0.045 -2.801,0.269 -4.069,1.123c-1.927,1.298 -3.967,2.429 -5.948,3.649c-0.693,0.426 -1.348,1.082 -2.096,-0.251c-0.113,1.315 -0.197,2.305 -0.299,3.511c-2.399,-1.21 -4.771,-2.181 -6.87,-3.565c-1.017,-0.67 -1.558,-2.093 -2.245,-3.217c-0.35,-0.571 -0.751,-0.787 -1.415,-0.767c-1.516,0.045 -3.034,-0.013 -4.55,0.028c-0.559,0.015 -0.827,-0.2 -1.032,-0.688c-0.541,-1.287 -1.166,-2.539 -1.669,-3.838c-0.32,-0.828 -0.821,-1.07 -1.678,-1.042c-1.669,0.052 -3.533,0.446 -4.96,-0.153c-1.465,-0.615 -2.619,-2.151 -3.706,-3.454c-1.824,-2.187 -4.396,-3.112 -6.795,-4.335c-0.601,-0.306 -0.939,-0.666 -1.151,-1.313c-1.478,-4.522 -3.045,-9.014 -4.479,-13.548c-0.325,-1.026 -0.787,-1.401 -1.792,-1.245c-1.037,0.159 -1.535,-0.131 -1.168,-1.302c0.307,-0.977 -0.035,-1.729 -0.84,-2.435c-2.425,-2.122 -4.388,-4.715 -6.842,-6.813c-0.372,-0.319 -0.444,-0.687 -0.424,-1.136c0.088,-1.98 0.175,-3.961 0.229,-5.942c0.012,-0.442 0.258,-0.704 0.495,-1.009c2.407,-3.097 4.783,-6.217 7.229,-9.282c0.603,-0.756 0.536,-1.172 -0.173,-1.786c-1.734,-1.501 -3.408,-3.072 -5.071,-4.651c-0.471,-0.446 -0.928,-0.621 -1.563,-0.495c-1.52,0.301 -3.056,0.531 -4.572,0.851c-0.645,0.136 -0.988,0.147 -1.055,-0.678c-0.103,-1.272 -0.331,-2.537 -0.553,-3.797c-0.089,-0.505 0.109,-0.629 0.541,-0.611c0.117,0.005 0.238,-0.02 0.35,0.002c2.131,0.418 3.62,-0.563 4.893,-2.148c0.346,-0.431 0.474,-0.745 0.203,-1.22c-0.88,-1.545 -0.959,-3.244 -0.925,-4.961c0.905,-0.331 1.763,-0.747 2.6,-1.32c-1.339,-0.388 -2.135,0.201 -2.715,1.233" style="fill:#d49e2e;"/><path d="M98.948,70.724c3.667,0 6.645,3.042 6.645,6.789c0,3.747 -6.257,13.53 -6.645,13.137c-1.949,-1.97 -6.645,-9.39 -6.645,-13.137c0,-3.747 2.978,-6.789 6.645,-6.789Z" style="fill:#fff;"/><path d="M253.776,65.759c3.668,0 6.645,3.042 6.645,6.788c0,3.747 -6.256,13.53 -6.645,13.137c-1.949,-1.969 -6.644,-9.39 -6.644,-13.137c0,-3.746 2.977,-6.788 6.644,-6.788Z" style="fill:#fff;"/><text x="244.926px" y="92.335px" style="font-family:'Rubik-Regular', 'Rubik';font-size:5.317px;fill:#fff;fill-opacity:0.705882;">L<tspan x="248.174px 251.99px 255.727px 259.544px " y="92.335px 92.335px 92.335px 92.335px ">AVAL</tspan></text><text x="86.619px" y="99.652px" style="font-family:'Rubik-Regular', 'Rubik';font-size:5.317px;fill:#fff;fill-opacity:0.705882;">A<tspan x="90.435px 94.422px 98.165px 101.981px " y="99.652px 99.652px 99.652px 99.652px ">URAY</tspan></text><path d="M99.948,88.662c15.325,11.232 31.879,11.565 49.38,4.042c38.281,-17.064 71.512,-16 103.576,-9.008" style="fill:none;stroke:#fff;stroke-width:2px;stroke-dasharray:2,4,0,0;"/></g></svg>