<?xml version="1.0" standalone="no"?>
<!DOCTYPE svg PUBLIC "-//W3C//DTD SVG 20010904//EN"
 "http://www.w3.org/TR/2001/REC-SVG-20010904/DTD/svg10.dtd">
<svg version="1.0" xmlns="http://www.w3.org/2000/svg"
 width="100.000000pt" height="100.000000pt" viewBox="0 0 100.000000 100.000000"
 preserveAspectRatio="xMidYMid meet">
<metadata>
Created by potrace 1.11, written by Peter Selinger 2001-2013
</metadata>
<g transform="translate(0.000000,100.000000) scale(0.100000,-0.100000)"
fill="#000000" stroke="none">
<path d="M387 493 c-30 -93 -58 -178 -62 -191 -6 -22 -5 -23 42 -20 46 3 48 4
57 41 l10 37 62 0 63 0 12 -40 c12 -40 13 -40 61 -40 47 0 49 1 42 23 -3 12
-31 97 -61 190 l-54 167 -59 0 -59 0 -54 -167z m132 17 c7 -25 15 -53 17 -62
5 -15 -1 -18 -35 -18 -23 0 -41 5 -41 10 0 25 34 130 40 123 4 -4 12 -28 19
-53z"/>
</g>
</svg>
